<svg width="21" height="21" viewBox="0 0 21 21" fill="none" xmlns="http://www.w3.org/2000/svg">
<path d="M2.63516 12.6C2.10182 12.6 1.64849 12.4267 1.27516 12.08C0.92849 11.7067 0.755156 11.24 0.755156 10.68C0.755156 10.1467 0.92849 9.72 1.27516 9.4C1.64849 9.05333 2.10182 8.88 2.63516 8.88H18.9952C19.5285 8.88 19.9685 9.05333 20.3152 9.4C20.6885 9.74667 20.8752 10.2 20.8752 10.76C20.8752 11.2667 20.6885 11.7067 20.3152 12.08C19.9685 12.4267 19.5285 12.6 18.9952 12.6H2.63516ZM10.7552 20.68C10.1418 20.68 9.62182 20.48 9.19516 20.08C8.79516 19.68 8.59516 19.16 8.59516 18.52V2.48C8.59516 1.86666 8.80849 1.36 9.23516 0.959999C9.66182 0.559999 10.1818 0.359999 10.7952 0.359999C11.4352 0.359999 11.9418 0.559999 12.3152 0.959999C12.7152 1.36 12.9152 1.86666 12.9152 2.48V18.52C12.9152 19.16 12.7152 19.68 12.3152 20.08C11.9152 20.48 11.3952 20.68 10.7552 20.68Z" fill="#FF7A33"/>
</svg>
