<svg width="29" height="29" viewBox="0 0 29 29" fill="none" xmlns="http://www.w3.org/2000/svg">
<path d="M11.5625 12.75C9.72981 12.75 8.63948 12.7813 7.99414 12.8145C6.84825 12.8735 5.93163 13.7537 5.88672 14.9404C5.87934 15.1354 5.875 15.3624 5.875 15.625C5.875 15.8876 5.87934 16.1146 5.88672 16.3096C5.93163 17.4963 6.84825 18.3765 7.99414 18.4355C8.63948 18.4687 9.72981 18.5 11.5625 18.5C13.4059 18.5 14.4993 18.4674 15.1445 18.4326C16.2143 18.3748 17.0788 17.5997 17.2197 16.5322L17.2373 16.3154C17.2448 16.1195 17.25 15.8906 17.25 15.625C17.25 15.3624 17.2457 15.1354 17.2383 14.9404C17.1934 13.7537 16.2767 12.8735 15.1309 12.8145C14.4855 12.7813 13.3952 12.75 11.5625 12.75ZM14.0625 5.875C10.6536 5.875 8.90784 5.91816 8.03027 5.95605C7.03619 5.99886 6.09871 6.68331 5.92188 7.78223L5.89648 8.00781C5.88322 8.21943 5.875 8.46553 5.875 8.75C5.875 8.89224 5.87712 9.02489 5.88086 9.14844L5.89648 9.49219C5.97337 10.7225 6.96981 11.4983 8.03027 11.5439C8.90784 11.5818 10.6536 11.625 14.0625 11.625C17.4835 11.625 19.2308 11.5795 20.1064 11.54C21.1615 11.4922 22.1512 10.7198 22.2285 9.49609C22.2419 9.28391 22.25 9.03659 22.25 8.75C22.25 8.60776 22.2479 8.47511 22.2441 8.35156L22.2285 8.00781C22.1516 6.7775 21.1552 6.00172 20.0947 5.95605C19.2172 5.91816 17.4714 5.875 14.0625 5.875ZM8.5 23.2969L7.53809 23.2607C6.19626 23.2096 5.09574 23.1469 4.22168 23.0859L3.93262 23.0537C2.50958 22.83 1.43234 21.7124 1.30371 20.251C1.15068 18.5099 1 15.864 1 12.1875C1 8.51099 1.15068 5.86506 1.30371 4.12402C1.44091 2.56517 2.65752 1.39811 4.22168 1.28906C6.23737 1.14853 9.45685 1 14.0625 1C18.6682 1 21.8876 1.14853 23.9033 1.28906C25.4674 1.39811 26.6841 2.56517 26.8213 4.12402C26.9743 5.86507 27.125 8.511 27.125 12.1875C27.125 15.864 26.9743 18.5099 26.8213 20.251C26.6841 21.8098 25.4674 22.9769 23.9033 23.0859C21.9694 23.2208 18.9274 23.3628 14.6162 23.374L14.2471 23.375L13.9678 23.6152L9.42871 27.5059C9.06389 27.8185 8.50037 27.5593 8.5 27.0791V23.2969Z" stroke="#181818" stroke-width="2"/>
</svg>
