<svg width="192" height="71" viewBox="0 0 192 71" fill="none" xmlns="http://www.w3.org/2000/svg">
<path d="M172 0H20C11.1634 0 4 7.16344 4 16V47C4 55.8366 11.1634 63 20 63H172C180.837 63 188 55.8366 188 47V16C188 7.16344 180.837 0 172 0Z" fill="#FF7A33"/>
<path d="M46.2761 26.7999C47.2467 26.7999 48.0894 26.9599 48.8041 27.2799C49.5294 27.5999 50.0841 28.0586 50.4681 28.6559C50.8521 29.2532 51.0441 29.9626 51.0441 30.7839C51.0441 31.5946 50.8521 32.3039 50.4681 32.9119C50.0841 33.5092 49.5294 33.9679 48.8041 34.2879C48.0894 34.6079 47.2467 34.7679 46.2761 34.7679H43.7481V37.9999H41.6681V26.7999H46.2761ZM46.1801 33.0079C47.0867 33.0079 47.7747 32.8159 48.2441 32.4319C48.7134 32.0479 48.9481 31.4986 48.9481 30.7839C48.9481 30.0692 48.7134 29.5199 48.2441 29.1359C47.7747 28.7519 47.0867 28.5599 46.1801 28.5599H43.7481V33.0079H46.1801ZM63.0732 26.7999V37.9999H60.9932V33.1999H55.2012V37.9999H53.1212V26.7999H55.2012V31.4239H60.9932V26.7999H63.0732ZM71.3063 38.1599C70.165 38.1599 69.1356 37.9146 68.2183 37.4239C67.301 36.9226 66.581 36.2346 66.0583 35.3599C65.5356 34.4746 65.2743 33.4879 65.2743 32.3999C65.2743 31.3119 65.5356 30.3306 66.0583 29.4559C66.581 28.5706 67.301 27.8826 68.2183 27.3919C69.1356 26.8906 70.165 26.6399 71.3063 26.6399C72.4476 26.6399 73.477 26.8906 74.3943 27.3919C75.3116 27.8826 76.0316 28.5652 76.5543 29.4399C77.077 30.3146 77.3383 31.3012 77.3383 32.3999C77.3383 33.4986 77.077 34.4852 76.5543 35.3599C76.0316 36.2346 75.3116 36.9226 74.3943 37.4239C73.477 37.9146 72.4476 38.1599 71.3063 38.1599ZM71.3063 36.3359C72.053 36.3359 72.725 36.1706 73.3223 35.8399C73.9196 35.4986 74.389 35.0292 74.7303 34.4319C75.0716 33.8239 75.2423 33.1466 75.2423 32.3999C75.2423 31.6532 75.0716 30.9812 74.7303 30.3839C74.389 29.7759 73.9196 29.3066 73.3223 28.9759C72.725 28.6346 72.053 28.4639 71.3063 28.4639C70.5596 28.4639 69.8876 28.6346 69.2903 28.9759C68.693 29.3066 68.2236 29.7759 67.8823 30.3839C67.541 30.9812 67.3703 31.6532 67.3703 32.3999C67.3703 33.1466 67.541 33.8239 67.8823 34.4319C68.2236 35.0292 68.693 35.4986 69.2903 35.8399C69.8876 36.1706 70.5596 36.3359 71.3063 36.3359ZM87.1628 29.5839C86.1068 28.9866 85.0081 28.6239 83.8668 28.4959V37.9999H81.7868V28.4959C80.6348 28.6239 79.5308 28.9866 78.4748 29.5839L77.7548 27.9839C78.5015 27.5359 79.3015 27.1999 80.1548 26.9759C81.0188 26.7519 81.9041 26.6399 82.8108 26.6399C83.7175 26.6399 84.6028 26.7519 85.4668 26.9759C86.3308 27.1999 87.1361 27.5359 87.8828 27.9839L87.1628 29.5839ZM94.3376 38.1599C93.1962 38.1599 92.1669 37.9146 91.2496 37.4239C90.3322 36.9226 89.6122 36.2346 89.0896 35.3599C88.5669 34.4746 88.3056 33.4879 88.3056 32.3999C88.3056 31.3119 88.5669 30.3306 89.0896 29.4559C89.6122 28.5706 90.3322 27.8826 91.2496 27.3919C92.1669 26.8906 93.1962 26.6399 94.3376 26.6399C95.4789 26.6399 96.5082 26.8906 97.4256 27.3919C98.3429 27.8826 99.0629 28.5652 99.5856 29.4399C100.108 30.3146 100.37 31.3012 100.37 32.3999C100.37 33.4986 100.108 34.4852 99.5856 35.3599C99.0629 36.2346 98.3429 36.9226 97.4256 37.4239C96.5082 37.9146 95.4789 38.1599 94.3376 38.1599ZM94.3376 36.3359C95.0842 36.3359 95.7562 36.1706 96.3536 35.8399C96.9509 35.4986 97.4202 35.0292 97.7616 34.4319C98.1029 33.8239 98.2736 33.1466 98.2736 32.3999C98.2736 31.6532 98.1029 30.9812 97.7616 30.3839C97.4202 29.7759 96.9509 29.3066 96.3536 28.9759C95.7562 28.6346 95.0842 28.4639 94.3376 28.4639C93.5909 28.4639 92.9189 28.6346 92.3216 28.9759C91.7242 29.3066 91.2549 29.7759 90.9136 30.3839C90.5722 30.9812 90.4016 31.6532 90.4016 32.3999C90.4016 33.1466 90.5722 33.8239 90.9136 34.4319C91.2549 35.0292 91.7242 35.4986 92.3216 35.8399C92.9189 36.1706 93.5909 36.3359 94.3376 36.3359ZM110.51 32.1759C111.129 32.3786 111.62 32.7199 111.982 33.1999C112.345 33.6692 112.526 34.2559 112.526 34.9599C112.526 35.9306 112.153 36.6826 111.406 37.2159C110.66 37.7386 109.572 37.9999 108.142 37.9999H102.574V26.7999H107.822C109.145 26.7999 110.164 27.0612 110.878 27.5839C111.593 28.0959 111.95 28.8052 111.95 29.7119C111.95 30.2666 111.822 30.7572 111.566 31.1839C111.31 31.6106 110.958 31.9412 110.51 32.1759ZM104.654 28.4319V31.5199H107.598C108.324 31.5199 108.878 31.3919 109.262 31.1359C109.657 30.8692 109.854 30.4852 109.854 29.9839C109.854 29.4719 109.657 29.0879 109.262 28.8319C108.878 28.5652 108.324 28.4319 107.598 28.4319H104.654ZM108.014 36.3679C109.625 36.3679 110.43 35.8292 110.43 34.7519C110.43 33.6746 109.625 33.1359 108.014 33.1359H104.654V36.3679H108.014ZM119.978 38.1599C118.837 38.1599 117.808 37.9146 116.89 37.4239C115.973 36.9226 115.253 36.2346 114.73 35.3599C114.208 34.4746 113.946 33.4879 113.946 32.3999C113.946 31.3119 114.208 30.3306 114.73 29.4559C115.253 28.5706 115.973 27.8826 116.89 27.3919C117.808 26.8906 118.837 26.6399 119.978 26.6399C121.12 26.6399 122.149 26.8906 123.066 27.3919C123.984 27.8826 124.704 28.5652 125.226 29.4399C125.749 30.3146 126.01 31.3012 126.01 32.3999C126.01 33.4986 125.749 34.4852 125.226 35.3599C124.704 36.2346 123.984 36.9226 123.066 37.4239C122.149 37.9146 121.12 38.1599 119.978 38.1599ZM119.978 36.3359C120.725 36.3359 121.397 36.1706 121.994 35.8399C122.592 35.4986 123.061 35.0292 123.402 34.4319C123.744 33.8239 123.914 33.1466 123.914 32.3999C123.914 31.6532 123.744 30.9812 123.402 30.3839C123.061 29.7759 122.592 29.3066 121.994 28.9759C121.397 28.6346 120.725 28.4639 119.978 28.4639C119.232 28.4639 118.56 28.6346 117.962 28.9759C117.365 29.3066 116.896 29.7759 116.554 30.3839C116.213 30.9812 116.042 31.6532 116.042 32.3999C116.042 33.1466 116.213 33.8239 116.554 34.4319C116.896 35.0292 117.365 35.4986 117.962 35.8399C118.56 36.1706 119.232 36.3359 119.978 36.3359ZM133.447 38.1599C132.306 38.1599 131.276 37.9146 130.359 37.4239C129.442 36.9226 128.722 36.2346 128.199 35.3599C127.676 34.4746 127.415 33.4879 127.415 32.3999C127.415 31.3119 127.676 30.3306 128.199 29.4559C128.722 28.5706 129.442 27.8826 130.359 27.3919C131.276 26.8906 132.306 26.6399 133.447 26.6399C134.588 26.6399 135.618 26.8906 136.535 27.3919C137.452 27.8826 138.172 28.5652 138.695 29.4399C139.218 30.3146 139.479 31.3012 139.479 32.3999C139.479 33.4986 139.218 34.4852 138.695 35.3599C138.172 36.2346 137.452 36.9226 136.535 37.4239C135.618 37.9146 134.588 38.1599 133.447 38.1599ZM133.447 36.3359C134.194 36.3359 134.866 36.1706 135.463 35.8399C136.06 35.4986 136.53 35.0292 136.871 34.4319C137.212 33.8239 137.383 33.1466 137.383 32.3999C137.383 31.6532 137.212 30.9812 136.871 30.3839C136.53 29.7759 136.06 29.3066 135.463 28.9759C134.866 28.6346 134.194 28.4639 133.447 28.4639C132.7 28.4639 132.028 28.6346 131.431 28.9759C130.834 29.3066 130.364 29.7759 130.023 30.3839C129.682 30.9812 129.511 31.6532 129.511 32.3999C129.511 33.1466 129.682 33.8239 130.023 34.4319C130.364 35.0292 130.834 35.4986 131.431 35.8399C132.028 36.1706 132.7 36.3359 133.447 36.3359ZM145.54 33.3119L143.764 35.1359V37.9999H141.684V26.7999H143.764V32.5439L149.3 26.7999H151.636L146.932 31.8079L151.924 37.9999H149.492L145.54 33.3119Z" fill="white"/>
</svg>
