<svg width="25" height="25" viewBox="0 0 25 25" fill="none" xmlns="http://www.w3.org/2000/svg">
<path d="M12.5 1C18.8512 1 24 6.14873 24 12.5C24 16.2612 22.1952 19.6003 19.4004 21.7002L17.0059 23.5H21.5V24H12.5C6.14873 24 1 18.8512 1 12.5C1 6.14872 6.14872 1 12.5 1ZM12.5 14C10.567 14 9 15.567 9 17.5C9 19.433 10.567 21 12.5 21C14.433 21 16 19.433 16 17.5C16 15.567 14.433 14 12.5 14ZM7.5 9C5.56701 9 4 10.567 4 12.5C4 14.433 5.56701 16 7.5 16C9.43299 16 11 14.433 11 12.5C11 10.567 9.43299 9 7.5 9ZM17.5 9C15.567 9 14 10.567 14 12.5C14 14.433 15.567 16 17.5 16C19.433 16 21 14.433 21 12.5C21 10.567 19.433 9 17.5 9ZM12.5 4C10.567 4 9 5.56701 9 7.5C9 9.43299 10.567 11 12.5 11C14.433 11 16 9.43299 16 7.5C16 5.56701 14.433 4 12.5 4Z" stroke="#FF7A33" stroke-width="2"/>
</svg>
