<svg width="172" height="107" viewBox="0 0 172 107" fill="none" xmlns="http://www.w3.org/2000/svg">
<path d="M172 37.5227L20.9389 59.2704L0.668869 79.726L172 37.5227Z" fill="#FF7A33" fill-opacity="0.85"/>
<path opacity="0.6" d="M172 37.5227L20.9389 59.2704L0.668869 79.726L172 37.5227Z" fill="white"/>
<path d="M172 37.5227L20.9389 59.2704L27.9496 88.8505L172 37.5227Z" fill="#FF7A33" fill-opacity="0.85"/>
<path opacity="0.2" d="M172 37.5227L20.9389 59.2704L27.9496 88.8505L172 37.5227Z" fill="black"/>
<path d="M31.051 3.27773L22.2843 44.3612C22.0563 45.4339 22.2631 46.5534 22.8593 47.4739C23.4556 48.3944 24.3927 49.0408 25.465 49.2713L103.709 65.9697C104.782 66.1959 105.9 65.9884 106.82 65.3924C107.74 64.7964 108.387 63.8604 108.619 62.7891L117.392 21.7056C117.618 20.6321 117.41 19.5127 116.813 18.5924C116.215 17.6722 115.278 17.0261 114.205 16.7955L35.9611 0.0970778C34.8875 -0.128973 33.7681 0.0794841 32.8479 0.676829C31.9277 1.27417 31.2816 2.21175 31.051 3.28435V3.27773Z" fill="#FF7A33" fill-opacity="0.85"/>
<path opacity="0.4" d="M31.051 3.27773L22.2843 44.3612C22.0563 45.4339 22.2631 46.5534 22.8593 47.4739C23.4556 48.3944 24.3927 49.0408 25.465 49.2713L103.709 65.9697C104.782 66.1959 105.9 65.9884 106.82 65.3924C107.74 64.7964 108.387 63.8604 108.619 62.7891L117.392 21.7056C117.618 20.6321 117.41 19.5127 116.813 18.5924C116.215 17.6722 115.278 17.0261 114.205 16.7955L35.9611 0.0970778C34.8875 -0.128973 33.7681 0.0794841 32.8479 0.676829C31.9277 1.27417 31.2816 2.21175 31.051 3.28435V3.27773Z" fill="white"/>
<path d="M32.9789 0.587429L59.1199 32.6789C61.5443 35.6542 64.9117 37.7128 68.6651 38.5141C72.4185 39.3154 76.333 38.8113 79.761 37.0854L116.729 18.4653C116.131 17.6062 115.229 17.0068 114.205 16.7889L35.9608 0.0904518C34.9398 -0.126861 33.8743 0.0507149 32.9789 0.587429Z" fill="#FF7A33" fill-opacity="0.85"/>
<path d="M172 37.5227L47.4046 67.1359L27.9496 88.8505L172 37.5227Z" fill="#FF7A33" fill-opacity="0.85"/>
<path opacity="0.6" d="M172 37.5227L47.4046 67.1359L27.9496 88.8505L172 37.5227Z" fill="white"/>
<path d="M126.55 66.0659L126.885 66.6377L113.02 74.7594L112.685 74.1877L126.55 66.0659Z" fill="#FF7A33" fill-opacity="0.85"/>
<path d="M106.564 77.7683L106.898 78.3401L101.913 81.2606L101.578 80.6888L106.564 77.7683Z" fill="#FF7A33" fill-opacity="0.85"/>
<path d="M172 37.5227L47.4046 67.1359L71.6239 96.325L172 37.5227Z" fill="#FF7A33" fill-opacity="0.85"/>
<path d="M5.34719 106.901C5.51504 106.901 5.68143 106.87 5.83753 106.808L26.1274 98.7767C26.4521 98.646 26.7118 98.3921 26.8499 98.0705C26.9881 97.749 26.9934 97.3859 26.8648 97.0604C26.7362 96.7349 26.484 96.4735 26.1634 96.3333C25.8428 96.193 25.4797 96.1853 25.1534 96.3117L4.85682 104.343C4.56969 104.456 4.3312 104.667 4.1825 104.937C4.0338 105.208 3.98423 105.522 4.04236 105.825C4.10049 106.128 4.26267 106.402 4.5009 106.598C4.73912 106.794 5.03844 106.901 5.34719 106.901Z" fill="#FF7A33" fill-opacity="0.85"/>
<path opacity="0.3" d="M5.34719 106.901C5.51504 106.901 5.68143 106.87 5.83753 106.808L26.1274 98.7767C26.4521 98.646 26.7118 98.3921 26.8499 98.0705C26.9881 97.749 26.9934 97.3859 26.8648 97.0604C26.7362 96.7349 26.484 96.4735 26.1634 96.3333C25.8428 96.193 25.4797 96.1853 25.1534 96.3117L4.85682 104.343C4.56969 104.456 4.3312 104.667 4.1825 104.937C4.0338 105.208 3.98423 105.522 4.04236 105.825C4.10049 106.128 4.26267 106.402 4.5009 106.598C4.73912 106.794 5.03844 106.901 5.34719 106.901Z" fill="black"/>
<path d="M6.54639 95.2648C6.71259 95.2638 6.87695 95.23 7.0301 95.1654L17.9305 90.8252C18.0934 90.762 18.2423 90.6672 18.3685 90.5463C18.4947 90.4254 18.5957 90.2807 18.6658 90.1206C18.7358 89.9605 18.7735 89.7881 18.7766 89.6133C18.7798 89.4386 18.7483 89.2649 18.6841 89.1024C18.6199 88.9398 18.5241 88.7916 18.4024 88.6662C18.2806 88.5408 18.1353 88.4408 17.9747 88.3718C17.8141 88.3028 17.6415 88.2662 17.4667 88.2642C17.2919 88.2623 17.1185 88.2948 16.9564 88.3601L6.05603 92.6805C5.72936 92.8091 5.46706 93.062 5.32668 93.3838C5.18629 93.7055 5.1793 94.0699 5.30724 94.3968C5.40054 94.6506 5.56927 94.8698 5.79077 95.025C6.01227 95.1801 6.27595 95.2638 6.54639 95.2648Z" fill="#FF7A33" fill-opacity="0.85"/>
<path opacity="0.5" d="M6.54639 95.2648C6.71259 95.2638 6.87695 95.23 7.0301 95.1654L17.9305 90.8252C18.0934 90.762 18.2423 90.6672 18.3685 90.5463C18.4947 90.4254 18.5957 90.2807 18.6658 90.1206C18.7358 89.9605 18.7735 89.7881 18.7766 89.6133C18.7798 89.4386 18.7483 89.2649 18.6841 89.1024C18.6199 88.9398 18.5241 88.7916 18.4024 88.6662C18.2806 88.5408 18.1353 88.4408 17.9747 88.3718C17.8141 88.3028 17.6415 88.2662 17.4667 88.2642C17.2919 88.2623 17.1185 88.2948 16.9564 88.3601L6.05603 92.6805C5.72936 92.8091 5.46706 93.062 5.32668 93.3838C5.18629 93.7055 5.1793 94.0699 5.30724 94.3968C5.40054 94.6506 5.56927 94.8698 5.79077 95.025C6.01227 95.1801 6.27595 95.2638 6.54639 95.2648Z" fill="white"/>
<path d="M29.3345 106.728C29.4999 106.727 29.6638 106.695 29.8182 106.636L49.6111 98.7768C49.7741 98.7137 49.923 98.6189 50.0492 98.498C50.1753 98.3771 50.2764 98.2324 50.3464 98.0722C50.4165 97.9121 50.4542 97.7397 50.4573 97.565C50.4605 97.3902 50.429 97.2166 50.3648 97.054C50.3005 96.8915 50.2048 96.7433 50.083 96.6179C49.9613 96.4925 49.8159 96.3924 49.6554 96.3234C49.4948 96.2544 49.3221 96.2179 49.1474 96.2159C48.9726 96.2139 48.7992 96.2465 48.6371 96.3118L28.8441 104.144C28.557 104.258 28.3185 104.468 28.1698 104.738C28.0211 105.009 27.9715 105.323 28.0297 105.626C28.0878 105.929 28.25 106.203 28.4882 106.399C28.7264 106.596 29.0257 106.703 29.3345 106.702V106.728Z" fill="#FF7A33" fill-opacity="0.85"/>
<path opacity="0.3" d="M29.3345 106.728C29.4999 106.727 29.6638 106.695 29.8182 106.636L49.6111 98.7768C49.7741 98.7137 49.923 98.6189 50.0492 98.498C50.1753 98.3771 50.2764 98.2324 50.3464 98.0722C50.4165 97.9121 50.4542 97.7397 50.4573 97.565C50.4605 97.3902 50.429 97.2166 50.3648 97.054C50.3005 96.8915 50.2048 96.7433 50.083 96.6179C49.9613 96.4925 49.8159 96.3924 49.6554 96.3234C49.4948 96.2544 49.3221 96.2179 49.1474 96.2159C48.9726 96.2139 48.7992 96.2465 48.6371 96.3118L28.8441 104.144C28.557 104.258 28.3185 104.468 28.1698 104.738C28.0211 105.009 27.9715 105.323 28.0297 105.626C28.0878 105.929 28.25 106.203 28.4882 106.399C28.7264 106.596 29.0257 106.703 29.3345 106.702V106.728Z" fill="black"/>
</svg>
