<svg width="142" height="102" viewBox="0 0 142 102" fill="none" xmlns="http://www.w3.org/2000/svg">
<path d="M108.651 65.0335C126.61 65.0335 141.168 50.4753 141.168 32.5168C141.168 14.5582 126.61 0 108.651 0C90.6925 0 76.1343 14.5582 76.1343 32.5168C76.1343 50.4753 90.6925 65.0335 108.651 65.0335Z" fill="#455A64"/>
<path d="M22.2158 101.634C34.4853 101.634 44.4316 91.6879 44.4316 79.4184C44.4316 67.149 34.4853 57.2026 22.2158 57.2026C9.94636 57.2026 0 67.149 0 79.4184C0 91.6879 9.94636 101.634 22.2158 101.634Z" fill="#EBEBEB"/>
<path d="M88.8214 26.4541V49.7505H82.2254V26.4541C82.2254 17.5846 75.4891 10.3711 67.209 10.3711C58.929 10.3711 52.1927 17.5846 52.1927 26.4541V49.7505H45.5967V26.4541C45.5967 13.7533 55.2942 3.42432 67.209 3.42432C79.1239 3.42432 88.8214 13.7533 88.8214 26.4541Z" fill="#C7C7C7"/>
<path d="M45.5967 32.5166L52.1927 32.7833V49.7784H45.5967V32.5166Z" fill="#A6A6A6"/>
<path d="M88.821 34.2851V49.7786H82.2251V34.0044L88.821 34.2851Z" fill="#A6A6A6"/>
<path d="M97.2696 36.5024H37.1479V91.0385H97.2696V36.5024Z" fill="#FFC727"/>
<path opacity="0.1" d="M97.2698 36.5024H67.209V91.0385H97.2698V36.5024Z" fill="black"/>
<path d="M69.7492 65.7632L72.2753 77.7061H61.5814L64.1075 65.7632C63.117 65.1523 62.3528 64.2349 61.931 63.1503C61.5092 62.0657 61.4527 60.8731 61.7702 59.7534C62.0877 58.6338 62.7618 57.6484 63.6902 56.9466C64.6186 56.2449 65.7506 55.8652 66.9143 55.8652C68.0781 55.8652 69.2101 56.2449 70.1384 56.9466C71.0668 57.6484 71.741 58.6338 72.0584 59.7534C72.3759 60.8731 72.3195 62.0657 71.8977 63.1503C71.4758 64.2349 70.7117 65.1523 69.7211 65.7632H69.7492Z" fill="#263238"/>
</svg>
