<svg width="28" height="30" viewBox="0 0 28 30" fill="none" xmlns="http://www.w3.org/2000/svg">
<path d="M14 17.7998C16.9584 17.7998 19.8197 18.6366 22.0557 20.126C24.5576 21.7942 26.1217 24.1442 26.625 26.9355V26.9365C26.7041 27.3738 26.5916 27.7638 26.3711 28.0273L26.3701 28.0283C26.2719 28.1461 26.1486 28.2412 26.0088 28.3057C25.869 28.37 25.7168 28.4013 25.5635 28.3994H2.43652C2.32162 28.4009 2.20745 28.3836 2.09863 28.3477L1.99121 28.3057C1.85151 28.2413 1.72841 28.1463 1.62988 28.0283L1.62891 28.0273L1.55176 27.9229C1.38364 27.6658 1.30594 27.32 1.375 26.9375V26.9365C1.87822 24.145 3.4419 21.7939 5.94434 20.125C8.18014 18.6352 11.0416 17.7998 14 17.7998ZM14 1C15.7043 1 17.2176 1.65344 18.2959 2.81738C19.3873 3.99578 19.9365 5.59642 19.8066 7.35352C19.5394 10.974 16.8134 13.7002 14 13.7002C11.2738 13.6999 8.62734 11.1406 8.22559 7.69043L8.19434 7.35352C8.06568 5.57248 8.61319 3.96924 9.69336 2.80469C10.763 1.65164 12.2808 1.00012 14 1Z" stroke="#181818" stroke-width="2"/>
</svg>
