<svg width="95" height="107" viewBox="0 0 95 107" fill="none" xmlns="http://www.w3.org/2000/svg">
<path d="M65.8549 85.1388C65.7084 86.8455 66.0713 88.5572 66.8978 90.0575C67.7242 91.5579 68.9771 92.7793 70.4979 93.5675C72.0187 94.3556 73.7391 94.675 75.4414 94.4853C77.1438 94.2955 78.7516 93.6051 80.0615 92.5014C81.3714 91.3977 82.3246 89.9303 82.8004 88.2848C83.2762 86.6393 83.2532 84.8897 82.7345 83.2572C82.2157 81.6248 81.2244 80.1829 79.8861 79.1139C78.5477 78.0449 76.9223 77.3968 75.2156 77.2518C74.0828 77.1536 72.9418 77.2799 71.8579 77.6234C70.774 77.9668 69.7685 78.5207 68.899 79.2534C68.0295 79.986 67.313 80.8829 66.7907 81.8929C66.2683 82.9028 65.9503 84.0058 65.8549 85.1388Z" fill="white"/>
<path d="M65.8554 85.139C65.6593 87.4568 66.3658 89.7608 67.8275 91.5703C69.2892 93.3798 71.3932 94.5549 73.7004 94.8505C74.8903 94.9746 76.093 94.8604 77.2382 94.5147C78.3835 94.169 79.4485 93.5987 80.371 92.8371C81.2935 92.0754 82.0551 91.1377 82.6114 90.0785C83.1676 89.0194 83.5074 87.8601 83.6108 86.6683C83.7142 85.4764 83.5793 84.2759 83.2138 83.1368C82.8483 81.9977 82.2597 80.9428 81.4822 80.0336C80.7047 79.1244 79.7539 78.3791 78.6853 77.8413C77.6167 77.3035 76.4517 76.9838 75.2582 76.901C72.9305 76.7946 70.6519 77.5926 68.8993 79.1281C67.1467 80.6636 66.0559 82.8175 65.8554 85.139ZM65.8554 85.139C65.9486 84.0216 66.2673 82.9348 66.7923 81.9441C67.3173 80.9534 68.0378 80.0794 68.9101 79.375C69.7824 78.6706 70.7885 78.1504 71.8675 77.8458C72.9466 77.5412 74.0762 77.4585 75.1881 77.6027C77.304 77.903 79.2265 78.9967 80.566 80.6619C81.9055 82.3271 82.5616 84.4394 82.4015 86.5705C82.2155 88.7057 81.2129 90.6869 79.6024 92.1012C77.992 93.5156 75.898 94.2541 73.7566 94.1629C72.6366 94.1142 71.5381 93.839 70.5275 93.3538C69.5168 92.8687 68.615 92.1838 67.8765 91.3403C67.138 90.4969 66.5782 89.5125 66.2308 88.4467C65.8835 87.3808 65.7558 86.2556 65.8554 85.139Z" fill="#263238"/>
<path d="M84.5204 101.096C84.4409 102.044 84.644 102.994 85.104 103.826C85.564 104.659 86.2603 105.336 87.1051 105.773C87.9498 106.21 88.9051 106.387 89.8504 106.282C90.7956 106.177 91.6885 105.794 92.4163 105.181C93.1441 104.569 93.6742 103.755 93.9396 102.841C94.2051 101.928 94.1939 100.957 93.9077 100.05C93.6215 99.1425 93.073 98.3405 92.3314 97.745C91.5899 97.1494 90.6885 96.7868 89.741 96.7031C88.4664 96.5942 87.2007 96.9956 86.2218 97.8192C85.243 98.6428 84.631 99.8213 84.5204 101.096Z" fill="white"/>
<path d="M84.5207 101.096C84.401 102.41 84.7852 103.721 85.5955 104.764C86.4057 105.806 87.5817 106.501 88.8853 106.709C89.91 106.868 90.9586 106.714 91.8954 106.27C92.8321 105.826 93.6139 105.11 94.1395 104.216C94.665 103.322 94.9102 102.292 94.8432 101.257C94.7762 100.222 94.4001 99.2313 93.7637 98.4128C93.1273 97.5942 92.2598 96.9856 91.2735 96.6656C90.2873 96.3456 89.2277 96.3291 88.2319 96.6181C87.2361 96.9071 86.3501 97.4884 85.6884 98.2867C85.0267 99.085 84.6199 100.064 84.5207 101.096ZM84.5207 101.096C84.5805 100.47 84.7683 99.8626 85.0725 99.3121C85.3766 98.7617 85.7907 98.2797 86.289 97.8959C86.9805 97.3779 87.8071 97.0711 88.6692 97.0125C89.5312 96.9539 90.3917 97.146 91.147 97.5656C91.9023 97.9852 92.52 98.6143 92.9257 99.3772C93.3313 100.14 93.5076 101.004 93.4331 101.865C93.3586 102.726 93.0367 103.546 92.5061 104.228C91.9755 104.91 91.2589 105.424 90.4428 105.708C89.6266 105.991 88.7459 106.033 87.9067 105.827C87.0676 105.621 86.3059 105.177 85.7136 104.548C85.289 104.085 84.9641 103.54 84.7589 102.946C84.5537 102.352 84.4726 101.722 84.5207 101.096Z" fill="#263238"/>
<path d="M1.10275 44.8754C0.562866 49.2741 1.18967 53.7374 2.92023 57.8172C4.6508 61.8971 7.42424 65.4498 10.9621 68.1189C14.4999 70.7879 18.6777 72.4792 23.0759 73.0231C27.4741 73.5669 31.9379 72.9441 36.0193 71.2172C38.0042 73.8001 40.5575 75.891 43.4811 77.3276C46.4047 78.7643 49.6199 79.5081 52.8774 79.5013C56.1349 79.4945 59.3471 78.7373 62.2646 77.2885C65.1822 75.8397 67.7268 73.7382 69.7009 71.147C70.6168 71.4277 71.5562 71.625 72.5077 71.7365C75.8116 72.1489 79.1643 71.5939 82.1591 70.1387C85.1538 68.6835 87.662 66.3906 89.3795 63.5381C91.0969 60.6857 91.9498 57.3962 91.8347 54.0685C91.7196 50.7409 90.6414 47.5182 88.731 44.7912C92.5026 40.0575 94.4493 34.127 94.2167 28.0789C93.9841 22.0309 91.5877 16.2674 87.4636 11.8373C83.3396 7.40728 77.762 4.60521 71.7461 3.94107C65.7301 3.27692 59.6756 4.79486 54.6845 8.21862C52.3448 5.29473 49.2725 3.04258 45.7801 1.69118C42.2877 0.339768 38.4997 -0.0626879 34.8013 0.524725C31.1028 1.11214 27.6259 2.66846 24.7241 5.03546C21.8223 7.40246 19.599 10.4957 18.2804 14.0006C17.3967 13.701 16.4843 13.494 15.5578 13.3831C12.7454 13.0374 9.89455 13.5615 7.3891 14.8851C4.88364 16.2087 2.84386 18.2681 1.54433 20.7861C0.244812 23.3041 -0.252037 26.1598 0.120659 28.9688C0.493355 31.7778 1.7177 34.4051 3.62888 36.4971C2.2946 39.1171 1.43913 41.9545 1.10275 44.8754Z" fill="#E6E6E6" fill-opacity="0.87"/>
<path d="M1.10268 44.8754C0.579315 49.2725 1.20302 53.7302 2.91309 57.8148C3.78367 59.8477 4.90072 61.7661 6.23914 63.5266C7.60527 65.2578 9.18495 66.8092 10.9405 68.1438C14.4857 70.8353 18.673 72.553 23.0869 73.1266C27.5009 73.7002 31.9882 73.1097 36.1035 71.4137H35.8649C37.8724 74.0504 40.4602 76.1895 43.4275 77.665C46.3949 79.1406 49.6622 79.913 52.9761 79.9225C56.2901 79.932 59.5618 79.1783 62.5375 77.7198C65.5133 76.2613 68.1133 74.1371 70.1359 71.512L69.6307 71.6804C71.3772 72.2079 73.1956 72.4589 75.0197 72.4242C76.8485 72.4216 78.6644 72.1181 80.3947 71.526C83.896 70.3539 86.9464 68.1224 89.1239 65.1405C90.1826 63.6406 91.0193 61.9957 91.6079 60.2567C92.172 58.5098 92.4746 56.6891 92.5061 54.8536C92.5404 51.1463 91.4169 47.5207 89.2923 44.4825V45.2123C93.1238 40.3576 95.089 34.2906 94.8316 28.1114C94.5741 21.9322 92.111 16.0498 87.8889 11.5307C83.6565 7.03374 77.969 4.18004 71.834 3.47517C65.7128 2.81899 59.5591 4.37733 54.488 7.86781L55.1055 7.96605C52.7014 5.00232 49.5527 2.73091 45.9819 1.38448C42.4112 0.0380396 38.5467 -0.33503 34.7843 0.303489C31.0528 0.923964 27.5512 2.51858 24.6336 4.92613C21.7159 7.33369 19.4856 10.4688 18.168 14.0147L18.3505 13.9305C15.4068 12.9775 12.2317 13.017 9.31258 14.0428C7.14306 14.8121 5.19789 16.1069 3.65089 17.8115C2.10388 19.5161 1.00322 21.5773 0.44722 23.811C-0.108788 26.0448 -0.102806 28.3815 0.46463 30.6123C1.03206 32.8432 2.14327 34.8988 3.69898 36.5954C2.35116 39.1803 1.47213 41.9837 1.10268 44.8754ZM1.10268 44.8754C1.44882 41.9377 2.31865 39.0859 3.67091 36.455C2.13631 34.765 1.04512 32.7205 0.495148 30.5049C-0.0548325 28.2893 -0.0463867 25.9719 0.519707 23.7604C1.0858 21.5488 2.19185 19.5123 3.73871 17.8335C5.28556 16.1546 7.22488 14.8859 9.38276 14.141C12.2565 13.1519 15.3785 13.1519 18.2522 14.141H18.3926V14.0007C19.7314 10.546 21.9582 7.50581 24.8482 5.18732C27.7216 2.85721 31.1674 1.34031 34.8264 0.794677C38.4622 0.233125 42.182 0.648044 45.6048 1.99693C49.0276 3.34582 52.0303 5.58021 54.3056 8.47127L54.5582 8.80808L54.923 8.55547C59.8275 5.29003 65.7335 3.87538 71.5851 4.56442C77.4368 5.25345 82.8526 8.00125 86.8644 12.3166C90.8313 16.6397 93.1388 22.2281 93.3777 28.0905C93.6166 33.953 91.7715 39.7106 88.1696 44.3422L87.8749 44.7211L88.1555 45.1281C90.1402 47.9336 91.1955 51.2908 91.1728 54.7273C91.1606 56.4373 90.8909 58.1358 90.3729 59.7655C89.836 61.3889 89.0654 62.9254 88.0854 64.3265C86.0639 67.1192 83.2392 69.2292 79.9878 70.3752C78.3645 70.9521 76.658 71.2603 74.9355 71.2874C73.2145 71.3512 71.4945 71.138 69.8412 70.6559L69.5324 70.5576L69.3219 70.8243C67.3964 73.3693 64.921 75.4465 62.0804 76.901C57.7496 79.0899 52.7923 79.7044 48.0581 78.6393C43.3239 77.5742 39.1075 74.8957 36.1315 71.0629L36.0333 70.9366H35.893C31.8467 72.6862 27.4084 73.3301 23.0318 72.8024C18.6551 72.2748 14.4971 70.5945 10.9826 67.9333C9.22691 66.61 7.64291 65.0731 6.26721 63.3582C4.92881 61.6304 3.80708 59.7452 2.92711 57.7446C1.22063 53.6836 0.592186 49.2507 1.10268 44.8754Z" fill="#047418" fill-opacity="0.36"/>
<path d="M62.5207 44.3127L61.7207 48.1439C61.6608 48.5318 61.5201 48.9028 61.3079 49.2329C61.0956 49.5631 60.8165 49.845 60.4885 50.0606C60.1605 50.2762 59.791 50.4206 59.4037 50.4844C59.0165 50.5483 58.6201 50.5303 58.2403 50.4315C57.8602 50.353 57.4995 50.2002 57.1786 49.9819C56.8578 49.7636 56.5832 49.4841 56.3706 49.1594C56.1581 48.8347 56.0118 48.4713 55.9401 48.0899C55.8683 47.7085 55.8727 47.3167 55.9528 46.937L57.2298 40.8042C57.2298 40.8042 57.2298 40.8041 57.314 40.7059C57.3982 40.6077 57.314 40.7059 57.314 40.5656C57.4952 39.8116 57.9584 39.1556 58.6084 38.7327C59.2584 38.3099 60.0458 38.1521 60.8085 38.2921C62.5616 38.6643 64.3907 38.3248 65.8935 37.3484C67.3963 36.372 68.4497 34.8385 68.8219 33.0855C69.1941 31.3324 68.8547 29.5032 67.8782 28.0004C66.9018 26.4976 65.3684 25.4443 63.6153 25.072C62.4687 24.8345 61.2798 24.9012 60.167 25.2656C59.0541 25.63 58.056 26.2793 57.2719 27.1491C57.0203 27.4631 56.7073 27.7226 56.352 27.9116C55.9967 28.1006 55.6066 28.2152 55.2056 28.2484C54.8045 28.2816 54.4009 28.2327 54.0193 28.1047C53.6378 27.9767 53.2864 27.7723 52.9865 27.5039C52.6866 27.2356 52.4446 26.9089 52.2751 26.5439C52.1057 26.1788 52.0125 25.7831 52.0012 25.3808C51.9898 24.9785 52.0606 24.5782 52.2092 24.2042C52.3577 23.8302 52.581 23.4904 52.8653 23.2055C54.2607 21.6469 56.0215 20.4593 57.9895 19.7494C59.9574 19.0395 62.0709 18.8296 64.14 19.1384C66.2091 19.4472 68.1691 20.2652 69.844 21.5188C71.5189 22.7725 72.8561 24.4225 73.7356 26.3207C74.6151 28.2189 75.0093 30.3058 74.8829 32.3941C74.7564 34.4823 74.1132 36.5064 73.0111 38.2846C71.909 40.0628 70.3824 41.5394 68.5685 42.5818C66.7546 43.6241 64.7102 44.1996 62.6189 44.2565L62.5207 44.3127ZM59.8402 57.2239L59.6156 58.2905C59.5442 58.6742 59.3959 59.0394 59.1795 59.3642C58.9632 59.689 58.6833 59.9667 58.3568 60.1804C58.0303 60.3941 57.6639 60.5396 57.2797 60.6079C56.8954 60.6763 56.5014 60.6661 56.1212 60.578C55.3573 60.4128 54.6892 59.9536 54.2611 59.2997C53.8331 58.6458 53.6795 57.8498 53.8336 57.0836L54.0582 56.017C54.2329 55.2602 54.6954 54.6011 55.3477 54.1794C55.9999 53.7576 56.7908 53.6063 57.5526 53.7575C58.3143 53.9164 58.9822 54.3699 59.4107 55.0193C59.8393 55.6687 59.9936 56.4612 59.8402 57.2239Z" fill="#455A64"/>
<path d="M36.0674 36.4678L35.6605 32.6505C35.5905 32.2624 35.6031 31.8639 35.6975 31.481C35.7919 31.098 35.9659 30.7393 36.2082 30.4281C36.4505 30.1169 36.7557 29.8603 37.1038 29.675C37.4519 29.4897 37.8352 29.3798 38.2287 29.3525C39.0041 29.2612 39.7842 29.4799 40.3992 29.9608C41.0142 30.4418 41.4144 31.1462 41.5126 31.9208L42.2845 38.1378C42.2845 38.1378 42.2845 38.1378 42.2845 38.2641C42.2845 38.3904 42.2845 38.2641 42.3547 38.3764C42.4314 39.1491 42.2072 39.9216 41.7289 40.5332C41.2506 41.1449 40.5548 41.5486 39.7865 41.6604C38.8811 41.7367 38.0004 41.995 37.1972 42.4198C36.3941 42.8447 35.6849 43.4273 35.1123 44.1328C34.5397 44.8382 34.1154 45.652 33.8649 46.5254C33.6143 47.3988 33.5427 48.3138 33.6542 49.2155C33.7658 50.1172 34.0582 50.9871 34.514 51.7731C34.9698 52.5592 35.5796 53.2451 36.3068 53.7897C37.034 54.3344 37.8637 54.7267 38.7462 54.943C39.6287 55.1594 40.5457 55.1954 41.4425 55.0488C42.6041 54.9143 43.7094 54.4747 44.646 53.7746C45.5827 53.0746 46.3174 52.1391 46.7754 51.0631C46.927 50.6992 47.1494 50.369 47.4298 50.0917C47.7101 49.8145 48.0427 49.5957 48.4084 49.4482C48.774 49.3006 49.1653 49.2272 49.5596 49.2322C49.9538 49.2372 50.3431 49.3205 50.7049 49.4773C51.0594 49.6313 51.3801 49.8538 51.6483 50.1321C51.9166 50.4103 52.1272 50.7389 52.268 51.0989C52.4089 51.4588 52.4772 51.8431 52.4691 52.2295C52.4609 52.616 52.3765 52.997 52.2206 53.3507C51.3914 55.2647 50.1012 56.9437 48.465 58.2375C46.8288 59.5314 44.8977 60.3998 42.844 60.7654C40.7904 61.1309 38.6781 60.9822 36.696 60.3324C34.7139 59.6826 32.9235 58.552 31.4848 57.0416C30.0462 55.5312 29.004 53.688 28.4514 51.6766C27.8987 49.6652 27.8528 47.5482 28.3178 45.5148C28.7828 43.4813 29.7441 41.5947 31.116 40.0234C32.4879 38.452 34.2276 37.2449 36.1797 36.5099L36.0674 36.4678ZM34.4535 23.3881L34.3132 22.3075C34.2454 21.9204 34.2597 21.5234 34.3551 21.1421C34.4505 20.7609 34.6249 20.4039 34.867 20.0943C35.1091 19.7848 35.4135 19.5295 35.7605 19.345C36.1075 19.1606 36.4894 19.051 36.8814 19.0235C37.266 18.9745 37.6564 19.0022 38.0302 19.1051C38.404 19.2079 38.7537 19.3838 39.0591 19.6226C39.3645 19.8615 39.6195 20.1585 39.8094 20.4964C39.9993 20.8344 40.1203 21.2067 40.1654 21.5918L40.3057 22.6583C40.3898 23.434 40.1689 24.2119 39.6895 24.8274C39.2102 25.443 38.5101 25.8479 37.7375 25.9563C37.3526 26.0073 36.9615 25.9809 36.5869 25.8789C36.2124 25.7768 35.8619 25.6011 35.5561 25.3619C35.2503 25.1227 34.9953 24.825 34.806 24.4861C34.6167 24.1472 34.4968 23.7739 34.4535 23.3881Z" fill="#FF7A33"/>
</svg>
