<svg width="393" height="321" viewBox="0 0 393 321" fill="none" xmlns="http://www.w3.org/2000/svg">
<path d="M366.174 278.646H280.838C279.635 274.637 282.74 269.835 286.12 269.159C290.278 268.325 294.428 261.016 294.648 256.363C294.86 251.709 302.327 237.396 313.96 246.231C325.593 255.074 322.056 247.536 330.474 245.052C338.892 242.568 344.197 249.713 340.503 255.074C340.503 255.074 348.961 252.951 352.442 260.851C355.924 268.742 352.442 273.647 352.442 273.647C352.442 273.647 363.124 273.34 366.174 278.646Z" fill="#E6E6E6" fill-opacity="0.87"/>
<path d="M43.2458 278.897C42.9864 275.832 43.403 271.862 46.9793 270.683C53.0472 268.679 56.6313 263.995 56.4348 258.681C56.2383 253.376 62.6128 248.204 67.3917 253.179C72.1706 258.155 71.5418 249.351 77.9241 247.206C84.3064 245.06 89.7219 250.263 87.9613 255.003C86.2007 259.742 92.5044 262.713 100.042 258.681C107.58 254.649 115.88 261.982 114.284 267.72C112.689 273.458 113.994 274.15 118.765 272.193C122.616 270.636 128.92 273.89 129.627 278.897H43.2458Z" fill="#E6E6E6" fill-opacity="0.87"/>
<path d="M326.088 278.787H215.969C214.413 273.615 218.422 267.422 222.792 266.541C228.152 265.472 233.513 256.033 233.796 250.028C234.071 244.022 243.699 225.551 258.712 236.956C273.725 248.361 269.158 238.638 280.02 235.431C290.883 232.225 297.737 241.444 292.966 248.361C292.966 248.361 303.883 245.626 308.371 255.812C312.867 265.999 308.371 272.326 308.371 272.326C308.371 272.326 322.158 271.933 326.096 278.779L326.088 278.787Z" fill="#E6E6E6" fill-opacity="0.87"/>
<path d="M195.777 74.8752C196.807 75.4176 198.331 75.5983 198.591 76.738C198.85 77.8777 197.773 78.5616 197.082 79.3476C195.415 81.5012 195.816 84.598 197.97 86.2644C198.166 86.4137 198.371 86.5473 198.583 86.6731C199.18 86.9482 199.943 87.1918 200.131 87.7971C200.218 88.2529 200.163 88.7245 199.982 89.1568C199.738 90.0136 199.66 90.9175 199.754 91.8056C199.754 92.1122 199.856 92.4109 200.068 92.631C200.296 92.796 200.571 92.8746 200.854 92.8589C204.423 93.0082 206.152 91.7428 208.321 94.8553C208.51 95.1697 208.769 95.437 209.068 95.6413C209.375 95.7985 209.705 95.8771 210.043 95.885C212.503 96.0894 214.114 94.5252 216.347 94.2658C217.282 94.1479 217.989 94.2265 218.602 94.4073C218.382 95.7671 218.87 97.1976 220.033 98.0937C220.19 98.2115 220.355 98.3216 220.528 98.4238C221 98.6517 221.573 98.8325 221.754 99.3198C221.825 99.6892 221.786 100.067 221.628 100.404C221.44 101.088 221.385 101.796 221.456 102.495C221.456 102.739 221.542 102.967 221.699 103.148C221.888 103.266 222.1 103.328 222.32 103.321C225.134 103.446 226.486 102.448 228.199 104.893C228.349 105.136 228.545 105.348 228.781 105.513C229.025 105.631 229.284 105.694 229.551 105.702C231.477 105.867 232.742 104.657 234.511 104.429C236.971 104.114 237.482 105.38 239.644 106.402C243.078 107.974 244.721 107.054 245.358 104.743C245.531 104.083 245.625 103.415 245.656 102.731C245.916 98.5653 249.877 99.2255 253.265 98.6596C255.914 98.2273 248.918 91.5463 254.24 89.4005C255.277 89.1097 256.181 88.4809 256.81 87.6084C257.376 86.2565 256.888 84.7002 255.654 83.9142C254.428 83.1754 253.006 82.8217 251.583 82.8924C251.245 82.4837 251.151 81.9885 251.206 81.4776C251.261 81.5562 251.324 81.627 251.379 81.7134C251.567 82.0278 251.819 82.2951 252.125 82.4994C252.432 82.6566 252.762 82.7431 253.1 82.7588C255.56 82.9474 257.171 81.399 259.404 81.1396C262.516 80.7309 263.176 82.3501 265.92 83.6234C267.947 84.598 269.48 84.8181 270.628 84.4723C270.942 85.1325 271.39 85.7299 272.011 86.2093C272.223 86.3744 272.443 86.5159 272.679 86.6495C273.261 86.9246 274.039 87.1683 274.212 87.7735C274.306 88.2294 274.259 88.701 274.078 89.1333C273.835 89.99 273.748 90.8939 273.835 91.7821C273.787 92.3166 274.18 92.796 274.715 92.851C274.793 92.851 274.872 92.851 274.943 92.851C278.511 93.0004 280.225 91.7349 282.41 94.8475C282.591 95.1619 282.85 95.437 283.157 95.6335C283.455 95.7907 283.793 95.8771 284.131 95.8771C286.591 96.0815 288.203 94.5174 290.435 94.258C293.547 93.865 294.208 95.4684 296.943 96.7575C301.235 98.8089 303.325 97.5592 304.127 94.6274C304.355 93.7942 304.489 92.9375 304.52 92.0729C304.764 87.9778 307.9 87.5613 311.264 87.2469C311.405 88.528 312.034 89.7542 313.127 90.6031C313.331 90.7603 313.543 90.9018 313.763 91.0275C314.345 91.3105 315.123 91.5463 315.296 92.1515C315.39 92.6074 315.343 93.079 315.162 93.5113C314.911 94.3916 314.824 95.3112 314.919 96.2308C314.919 96.5374 315.029 96.8361 315.241 97.0561C315.469 97.2212 315.744 97.2998 316.027 97.2841C319.595 97.4334 321.309 96.168 323.494 99.2805C323.675 99.5949 323.934 99.87 324.241 100.067C324.539 100.224 324.877 100.31 325.215 100.31C327.676 100.515 329.287 98.9504 331.519 98.691C334.632 98.298 335.292 99.9015 338.027 101.19C342.334 103.242 344.425 101.992 345.243 99.0604C345.455 98.2273 345.589 97.3705 345.62 96.5059C345.934 91.224 350.988 92.065 355.28 91.3419C358.636 90.7839 349.754 82.2951 356.514 79.5676C357.834 79.1982 358.99 78.3965 359.784 77.2882C360.483 75.5748 359.862 73.6019 358.306 72.6037C356.765 71.6448 354.981 71.1731 353.173 71.2439C352.073 69.8841 352.969 67.8877 354.03 66.52C355.091 65.1445 356.404 63.5883 356.003 61.8983C355.39 59.3438 351.837 59.2495 349.212 59.7369C348.261 58.2042 348.292 56.2706 347.852 54.5178C347.42 52.765 345.989 50.9337 344.197 51.1459C342.405 51.366 341.478 53.2681 339.796 53.6611C339.662 53.6925 339.536 53.6925 339.403 53.7004C338.255 50.9415 337.029 47.5145 340.88 45.9583C342.193 45.5889 343.348 44.7871 344.142 43.6789C344.858 41.9654 344.237 39.9925 342.672 38.9943C341.124 38.059 339.34 37.611 337.54 37.7053C336.424 36.3455 337.32 34.349 338.397 32.9814C339.466 31.6059 340.77 30.0496 340.369 28.3676C339.756 25.8131 336.204 25.7188 333.578 26.2061C332.627 24.6734 332.643 22.7398 332.219 20.987C331.794 19.2343 330.372 17.4029 328.564 17.6151C326.756 17.8352 325.844 19.7373 324.178 20.1303C322.252 20.5783 320.578 18.8648 319.061 17.5915C318.794 17.3714 318.487 17.1671 318.173 16.9863C318.817 16.0195 319.273 14.982 319.022 13.8973C318.409 11.3428 314.84 11.2485 312.231 11.7515C311.28 10.2031 311.311 8.27743 310.871 6.52465C310.439 4.77187 309.008 2.94049 307.216 3.15271C305.424 3.37279 304.496 5.27491 302.814 5.66791C300.889 6.13165 299.215 4.41817 297.705 3.14485C296.196 1.87153 293.54 1.06981 292.502 2.75185C291.881 3.75793 292.243 5.17273 291.606 6.16309C290.482 7.88443 287.802 6.81547 286.175 5.58931C284.548 4.36315 281.883 3.27061 280.743 4.96837C280.453 5.52643 280.24 6.11593 280.107 6.73687C279.627 8.10451 278.535 9.06343 277.324 9.92803C277.238 9.94375 277.151 9.95947 277.065 9.97519C276.114 8.42677 276.145 6.50107 275.705 4.74829C275.273 2.99551 273.842 1.16413 272.05 1.37635C270.258 1.59643 269.331 3.49855 267.649 3.89155C265.723 4.33957 264.049 2.64181 262.54 1.35277C261.031 0.0637254 258.374 -0.722275 257.336 0.959765C256.715 1.98157 257.077 3.38065 256.44 4.37101C255.316 6.09235 252.636 5.03911 251.009 3.81295C249.382 2.58679 246.718 1.47853 245.578 3.17629C245.287 3.73435 245.075 4.33171 244.941 4.94479C244.155 7.21633 241.711 8.34031 239.809 9.77869C237.907 11.2171 236.397 14.1095 238.017 15.878C238.803 16.7584 240.202 17.1121 240.595 18.2282C241.082 19.588 239.675 20.8456 238.543 21.8123C236.672 23.4001 236.327 28.1554 238.803 29.4601C239.258 29.6959 239.809 29.8689 240.304 30.0811H240.288C238.362 30.5291 236.688 28.8156 235.179 27.5423C233.67 26.269 231.013 25.4672 229.96 27.1493C229.339 28.1554 229.716 29.5702 229.064 30.5605C227.94 32.2819 225.275 31.2129 223.633 29.9867C221.99 28.7606 219.341 27.668 218.201 29.3658C217.903 29.9239 217.691 30.5134 217.549 31.1343C216.779 33.4058 214.326 34.5141 212.432 35.9682C210.53 37.4223 209.021 40.2991 210.624 42.0676C211.426 42.94 212.825 43.2937 213.218 44.402C213.706 45.7618 212.283 47.0351 211.167 48.0019C210.562 48.5128 210.121 49.3617 209.878 50.3127C209.186 50.0376 208.51 49.6446 207.952 49.2359C206.309 48.0254 203.66 46.9015 202.521 48.5992C202.23 49.1573 202.018 49.7468 201.884 50.3677C201.098 52.6393 198.654 53.7475 196.752 55.2016C194.849 56.6557 193.34 59.5325 194.959 61.301C195.745 62.1735 197.145 62.535 197.538 63.6354C198.025 64.9952 196.618 66.2685 195.486 67.2353C193.623 68.823 193.285 73.5783 195.761 74.8831L195.777 74.8752Z" fill="#E6E6E6" fill-opacity="0.87"/>
<path d="M320.067 78.0743C320.067 78.0743 311.743 89.8643 308.867 93.5978C305.99 97.3392 291.614 120.62 289.665 136.018C289.46 137.653 289.248 139.076 289.044 140.302C295.229 181.111 294.263 255.765 294.035 268.538H274.455C274.275 254.13 272.616 122.389 271.995 118.373C271.351 114.112 263.121 97.9051 250.514 91.2477C237.906 84.5903 226.942 62.5508 226.942 62.5508H230.974C230.974 62.5508 238.449 76.0464 249.083 83.5292C250.608 84.5824 252.204 85.5335 253.862 86.3666C253.831 78.2394 255.269 70.175 258.099 62.5508L260.276 64.5551C257.336 76.5966 257.745 84.2994 258.618 88.7246C262.634 90.6032 266.336 93.0869 269.606 96.0895C280.641 81.7449 286.843 48.9294 286.843 48.9294L289.672 50.4779C288.871 57.2532 287.652 63.9735 286.025 70.6073C283.958 79.0961 277.875 95.0834 275.053 102.291C278.44 107.156 281.231 112.407 283.377 117.932C283.675 117.469 284.037 117.044 284.438 116.667C291.622 110.167 305.133 79.4813 305.133 79.4813C308.403 72.3444 303.412 53.614 303.412 53.614H307.216L308.898 69.9864L318.377 59.6426L320.098 61.0731L310.046 74.0107L304.874 90.3988L318.369 75.4412L320.067 78.0665V78.0743Z" fill="#E6E6E6" fill-opacity="0.87"/>
<path d="M51.8917 100.491C52.552 101.418 53.5109 102.094 54.6034 102.393C60.2391 104.664 52.8349 111.723 55.6331 112.194C59.2566 112.784 63.4145 112.076 63.6817 116.502C63.7132 117.217 63.8154 117.932 63.9883 118.624C64.6642 121.068 66.4092 122.106 69.9776 120.322C72.2649 119.245 72.8072 117.916 75.401 118.239C77.256 118.474 78.6 119.756 80.6515 119.583C80.9344 119.583 81.2174 119.512 81.4611 119.378C81.7126 119.213 81.9248 118.993 82.082 118.726C83.8819 116.132 85.3518 117.193 88.3071 117.06C88.5429 117.06 88.7709 116.997 88.9674 116.871C89.1403 116.682 89.2346 116.431 89.2346 116.179C89.2975 115.441 89.2346 114.694 89.0302 113.979C88.873 113.609 88.8337 113.208 88.9123 112.815C89.101 112.297 89.7062 112.108 90.1935 111.872C90.3822 111.77 90.5629 111.652 90.7359 111.518C91.6319 110.819 92.1585 109.813 92.2764 108.767C95.1217 109.027 97.7077 109.349 97.9199 112.807C97.9513 113.523 98.0614 114.238 98.2422 114.93C98.9181 117.374 100.663 118.451 104.231 116.698C106.519 115.621 107.061 114.293 109.655 114.623C111.526 114.859 112.87 116.14 114.905 115.967C115.196 115.967 115.479 115.896 115.731 115.763C115.982 115.598 116.194 115.378 116.352 115.11C118.152 112.517 119.621 113.578 122.577 113.444C122.805 113.444 123.033 113.381 123.229 113.255C123.402 113.067 123.504 112.823 123.496 112.564C123.567 111.825 123.496 111.078 123.308 110.363C123.15 110.001 123.111 109.601 123.19 109.215C123.371 108.681 123.968 108.492 124.471 108.257C124.66 108.154 124.84 108.036 125.013 107.903C125.516 107.51 125.894 107.015 126.161 106.472C127.112 106.747 128.393 106.543 130.091 105.694C132.378 104.617 132.92 103.273 135.514 103.611C137.385 103.847 138.713 105.113 140.765 104.955C141.048 104.947 141.331 104.877 141.59 104.751C141.842 104.578 142.054 104.35 142.211 104.091C142.242 104.044 142.274 104.004 142.313 103.957C142.368 104.397 142.297 104.822 142.007 105.183C140.828 105.128 139.656 105.419 138.643 106.024C137.621 106.685 137.212 107.981 137.668 109.105C138.187 109.828 138.941 110.347 139.806 110.583C144.247 112.414 138.422 117.94 140.615 118.309C143.429 118.75 146.746 118.239 146.958 121.697C146.99 122.263 147.076 122.813 147.21 123.363C147.744 125.297 149.112 126.122 151.989 124.676C153.789 123.835 154.213 122.79 156.265 123.041C157.727 123.23 158.788 124.236 160.391 124.102C160.619 124.102 160.839 124.039 161.044 123.937C161.24 123.796 161.405 123.623 161.531 123.418C162.961 121.383 164.085 122.208 166.428 122.106C166.491 122.114 166.553 122.122 166.616 122.106C166.954 122.059 167.19 121.744 167.143 121.406C167.198 120.825 167.143 120.243 166.994 119.685C166.86 119.402 166.829 119.08 166.891 118.773C167.041 118.357 167.528 118.215 167.905 118.019C168.055 117.94 168.196 117.846 168.33 117.736C169.273 116.997 169.682 115.841 169.524 114.733C170.035 114.584 170.617 114.529 171.387 114.623C173.258 114.859 174.586 116.14 176.638 115.967C176.921 115.967 177.196 115.896 177.447 115.763C177.707 115.598 177.919 115.378 178.068 115.11C179.884 112.517 181.354 113.578 184.309 113.444C184.537 113.444 184.765 113.381 184.962 113.255C185.134 113.067 185.229 112.815 185.229 112.564C185.3 111.825 185.229 111.078 185.04 110.363C184.875 110.001 184.836 109.601 184.922 109.215C185.103 108.681 185.7 108.492 186.203 108.257C186.384 108.154 186.557 108.044 186.722 107.919C188.514 106.535 188.844 103.957 187.461 102.165C186.887 101.473 185.999 100.955 186.211 99.9956C186.416 99.0367 187.689 98.8874 188.554 98.4472C190.621 97.3547 190.251 93.3932 188.774 92.0649C187.83 91.2946 186.651 90.265 187.06 89.1174C187.382 88.1899 188.546 87.8912 189.214 87.1681C190.581 85.6904 189.316 83.2931 187.736 82.0827C186.156 80.8723 184.121 79.9448 183.476 78.0584C183.366 77.5396 183.185 77.0444 182.934 76.5807C181.975 75.1659 179.766 76.0934 178.391 77.1152C177.927 77.461 177.369 77.7911 176.795 78.0191C176.598 77.2016 176.221 76.4628 175.702 76.0226C174.775 75.2681 173.651 74.0026 173.989 73.0751C174.327 72.1477 175.49 71.849 176.143 71.1259C177.502 69.6482 176.261 67.2509 174.665 66.0404C173.069 64.83 171.041 63.9025 170.389 62.0161C170.271 61.5052 170.09 61.01 169.855 60.5384C168.88 59.1236 166.703 60.0511 165.312 61.0729C163.928 62.0869 161.696 63.0222 160.768 61.5445C160.226 60.7192 160.533 59.5402 160.014 58.6992C159.141 57.3001 156.988 57.9761 155.675 59.0372C154.378 60.0826 153.058 61.4738 151.478 61.1515C151.871 60.9943 152.295 60.8607 152.657 60.6721C154.724 59.5795 154.425 55.6181 152.877 54.3055C151.934 53.5509 150.755 52.5055 151.164 51.358C151.486 50.4305 152.649 50.1318 153.317 49.4087C154.685 47.931 153.419 45.5337 151.839 44.3233C150.26 43.1128 148.224 42.1853 147.579 40.2989C147.469 39.788 147.289 39.2929 147.045 38.8213C146.07 37.4065 143.862 38.3339 142.486 39.3557C141.111 40.3775 138.886 41.305 137.959 39.8273C137.416 39.002 137.723 37.823 137.204 36.982C136.332 35.5829 134.178 36.2275 132.865 37.3043C131.553 38.3811 129.989 39.7409 128.605 39.4108C127.222 39.0885 126.515 37.4772 124.95 37.3279C123.386 37.1785 122.294 38.6562 121.916 40.126C121.744 41.6194 121.358 43.0814 120.761 44.4569C119.692 43.7023 118.702 42.8849 118.277 41.6902C118.175 41.1793 117.994 40.6762 117.743 40.2125C116.768 38.7977 114.591 39.7094 113.2 40.7312C111.816 41.7452 109.6 42.6884 108.657 41.2186C108.122 40.3775 108.437 39.2143 107.902 38.3732C107.045 36.9742 104.892 37.6344 103.579 38.6955C102.266 39.7566 100.922 41.1871 99.319 40.802C97.9356 40.4797 97.1653 38.8448 95.6641 38.7112C94.1628 38.5776 92.9917 40.0553 92.6144 41.5251C92.4493 43.0499 92.0563 44.5433 91.4511 45.9503C89.3132 45.5337 86.3343 45.6123 85.8312 47.7345C85.6111 48.6305 85.9806 49.4873 86.5072 50.289C86.2557 50.4383 86.0041 50.5955 85.7919 50.7685C84.4793 51.8296 82.9152 53.2051 81.5318 52.8749C80.1484 52.5448 79.441 50.9178 77.8769 50.7842C76.3128 50.6506 75.2202 52.1282 74.8429 53.5981C74.6622 55.0993 74.2692 56.5613 73.6797 57.9446C71.526 57.5281 68.5628 57.6067 68.044 59.7289C67.7061 61.1279 68.8143 62.4406 69.6946 63.5803C70.5828 64.7121 71.3295 66.3941 70.402 67.5181C68.9008 67.4395 67.4152 67.8168 66.1262 68.5949C64.8293 69.4281 64.3105 71.0787 64.9 72.5014C65.5603 73.4288 66.5192 74.0969 67.6117 74.4035C70.8501 75.7082 69.7968 78.585 68.8379 80.888C68.7279 80.888 68.6178 80.888 68.5156 80.8565C67.1323 80.5343 66.362 78.8994 64.8607 78.7658C63.3595 78.6322 62.1883 80.1098 61.8111 81.5797C61.6381 83.0809 61.2451 84.5429 60.6478 85.9262C58.5099 85.5097 55.5309 85.5883 55.0279 87.7105C54.6899 89.1253 55.7667 90.4222 56.6628 91.5619C57.5588 92.6937 58.2976 94.3915 57.3859 95.4997C55.8846 95.429 54.3991 95.8063 53.11 96.5765C51.8131 97.4097 51.3022 99.0603 51.8839 100.483L51.8917 100.491ZM90.3507 104.484C90.2092 104.224 90.1385 103.941 90.2171 103.619C90.2957 103.265 90.5551 103.03 90.8773 102.849C90.7516 103.399 90.5629 103.949 90.3507 104.484Z" fill="#E6E6E6" fill-opacity="0.87"/>
<path d="M82.4121 105.781C82.4121 105.781 89.8555 116.305 92.4257 119.638C94.9881 122.97 107.816 143.744 109.561 157.499C109.749 158.977 109.946 160.227 110.119 161.335C104.601 197.751 105.458 264.388 105.693 275.8H123.198C123.363 262.926 124.848 145.34 125.391 141.756C125.964 137.952 133.282 123.489 144.561 117.547C155.84 111.605 165.555 91.9078 165.555 91.9078H161.955C161.955 91.9078 155.274 103.957 145.74 110.63C144.372 111.566 142.95 112.415 141.48 113.169C141.519 105.914 140.254 98.7145 137.746 91.9078L135.797 93.692C138.422 104.444 138.069 111.385 137.275 115.26C133.683 116.942 130.374 119.158 127.458 121.839C117.609 109.027 112.076 79.7405 112.076 79.7405L109.537 81.1238C110.284 87.1839 111.392 93.1889 112.87 99.1154C114.709 106.692 120.156 120.966 122.671 127.443C119.676 131.789 117.2 136.482 115.298 141.402C115.031 140.986 114.709 140.6 114.339 140.27C107.926 134.462 95.8605 107.062 95.8605 107.062C92.913 100.695 97.409 83.9692 97.409 83.9692H94.0292L92.5515 98.5966L84.0863 89.369L82.5378 90.6502L91.3725 102.228L96.002 116.855L83.9448 103.509L82.3964 105.781H82.4121Z" fill="#E6E6E6" fill-opacity="0.87"/>
<path d="M94.4458 318.928H89.2032L99.9242 258.406H105.167L94.4458 318.928Z" fill="#E6E6E6" fill-opacity="0.87"/>
<path d="M257.423 318.928H252.18L262.901 258.406H268.144L257.423 318.928Z" fill="#E6E6E6" fill-opacity="0.87"/>
<path d="M303.05 288.667H97.1812V293.973H303.05V288.667Z" fill="#E6E6E6" fill-opacity="0.87"/>
<path d="M142.816 318.928H148.059L137.338 258.406H132.087L142.816 318.928Z" fill="#E6E6E6" fill-opacity="0.87"/>
<path d="M305.793 318.928H311.036L300.315 258.406H295.072L305.793 318.928Z" fill="#E6E6E6" fill-opacity="0.87"/>
<path d="M258.225 256.048H253.006L244.281 207.489H249.492L258.225 256.048Z" fill="#E6E6E6" fill-opacity="0.87"/>
<path d="M106.904 256.048H101.685L92.9446 207.489H98.1636L106.904 256.048Z" fill="#E6E6E6" fill-opacity="0.87"/>
<path d="M182.564 256.048H177.353L168.613 207.489H173.832L182.564 256.048Z" fill="#E6E6E6" fill-opacity="0.87"/>
<path d="M267.248 210.806H82.4908L80.8559 201.712H265.605L267.248 210.806Z" fill="#E6E6E6" fill-opacity="0.87"/>
<path d="M270.203 227.249H85.4462L83.8113 218.155H268.568L270.203 227.249Z" fill="#E6E6E6" fill-opacity="0.87"/>
<path d="M273.167 243.685H88.4093L86.7666 234.598H271.524L273.167 243.685Z" fill="#E6E6E6" fill-opacity="0.87"/>
<path d="M312.136 254.625H89.7692V260.906H312.136V254.625Z" fill="#E6E6E6" fill-opacity="0.87"/>
<path d="M348.921 230.55H206.852C204.313 230.55 202.246 228.483 202.246 225.944V19.0064C202.246 16.4676 204.313 14.4004 206.852 14.4004H348.921C351.46 14.4004 353.527 16.4676 353.527 19.0064V225.944C353.527 228.483 351.46 230.55 348.921 230.55ZM206.852 14.5969C204.423 14.5969 202.442 16.5776 202.442 19.0064V225.944C202.442 228.373 204.423 230.354 206.852 230.354H348.921C351.35 230.354 353.331 228.373 353.331 225.944V19.0064C353.331 16.5776 351.35 14.5969 348.921 14.5969H206.852Z" fill="#E6E6E6" fill-opacity="0.87"/>
<path d="M185.095 230.55H43.0335C40.4947 230.55 38.4276 228.483 38.4276 225.944V19.0064C38.4276 16.4676 40.4947 14.4004 43.0335 14.4004H185.095C187.634 14.4004 189.701 16.4676 189.701 19.0064V225.944C189.701 228.483 187.634 230.55 185.095 230.55ZM43.0335 14.5969C40.6048 14.5969 38.6241 16.5776 38.6241 19.0064V225.944C38.6241 228.373 40.6048 230.354 43.0335 230.354H185.095C187.524 230.354 189.505 228.373 189.505 225.944V19.0064C189.505 16.5776 187.524 14.5969 185.095 14.5969H43.0335Z" fill="#E6E6E6" fill-opacity="0.87"/>
<path d="M393 278.552H0V278.748H393V278.552Z" fill="#E6E6E6" fill-opacity="0.87"/>
<path d="M53.2358 289.76H40.6126V289.956H53.2358V289.76Z" fill="#E6E6E6" fill-opacity="0.87"/>
<path d="M175.97 287.63H133.895V287.826H175.97V287.63Z" fill="#E6E6E6" fill-opacity="0.87"/>
<path d="M82.5143 297.062H54.0218V297.258H82.5143V297.062Z" fill="#E6E6E6" fill-opacity="0.87"/>
<path d="M331.33 287.528H297.383V287.724H331.33V287.528Z" fill="#E6E6E6" fill-opacity="0.87"/>
<path d="M343.309 287.528H338.334V287.724H343.309V287.528Z" fill="#E6E6E6" fill-opacity="0.87"/>
<path d="M290.899 292.424H248.541V292.621H290.899V292.424Z" fill="#E6E6E6" fill-opacity="0.87"/>
<path d="M294.939 300.284C294.475 299.498 293.43 298.539 292.706 297.989C291.975 297.439 290.977 297.164 290.136 297.51C289.059 297.95 288.564 299.27 288.714 300.426C288.863 301.581 289.413 303.043 290.073 304.002C292.879 308.105 295.473 311.862 299.796 314.92C299.796 309.818 297.532 304.631 294.947 300.284H294.939Z" fill="#047418"/>
<path d="M309.212 300.992C308.246 300.465 306.446 301.212 305.557 301.872C303.805 303.185 302.736 304.56 301.675 306.47C300.323 308.899 300.166 312.302 299.993 314.464C303.42 311.681 306.909 308.828 309.252 305.095C309.66 304.442 310.038 303.743 310.116 302.972C310.187 302.202 309.888 301.361 309.212 300.984V300.992Z" fill="#047418"/>
<path d="M300.307 317.081C300.213 317.081 300.134 317.018 300.118 316.924C299.309 313.175 297.87 309.614 295.843 306.352C295.788 306.258 295.811 306.14 295.905 306.085C296 306.03 296.118 306.053 296.173 306.148C298.216 309.449 299.678 313.049 300.496 316.845C300.519 316.947 300.448 317.057 300.346 317.081C300.331 317.081 300.315 317.081 300.307 317.081Z" fill="#263238"/>
<path d="M299.851 314.99C299.851 314.99 299.804 314.99 299.788 314.982C299.686 314.943 299.631 314.833 299.67 314.731C300.59 312.2 301.934 309.866 303.655 307.791C303.726 307.704 303.852 307.696 303.931 307.767C304.017 307.838 304.025 307.963 303.954 308.042C302.256 310.078 300.936 312.373 300.032 314.865C300.001 314.943 299.93 314.998 299.843 314.998L299.851 314.99Z" fill="#263238"/>
<path d="M126.853 75.9758C124.392 75.347 121.885 76.8325 121.256 79.2927C118.82 78.5853 116.265 79.9765 115.55 82.4131C114.835 84.8497 116.234 87.4042 118.67 88.1195C118.772 88.1509 118.875 88.1745 118.985 88.1981L127.89 90.4696L130.169 81.5642C130.798 79.1041 129.313 76.6046 126.853 75.9758Z" fill="#FC1010"/>
<path d="M135.098 59.784C136.851 58.9037 138.981 59.6111 139.861 61.356C141.669 60.5857 143.752 61.4346 144.522 63.2424C145.229 64.9009 144.577 66.8266 143.005 67.7147L136.646 70.8587L133.502 64.5C132.661 62.7551 133.369 60.6565 135.098 59.784Z" fill="#FC1010"/>
<g opacity="0.5">
<path d="M126.853 75.9758C124.392 75.347 121.885 76.8325 121.256 79.2927C118.82 78.5853 116.265 79.9765 115.55 82.4131C114.835 84.8497 116.234 87.4042 118.67 88.1195C118.772 88.1509 118.875 88.1745 118.985 88.1981L127.89 90.4696L130.169 81.5642C130.798 79.1041 129.313 76.6046 126.853 75.9758Z" fill="white"/>
<path d="M135.098 59.784C136.851 58.9037 138.981 59.6111 139.861 61.356C141.669 60.5857 143.752 61.4346 144.522 63.2424C145.229 64.9009 144.577 66.8266 143.005 67.7147L136.646 70.8587L133.502 64.5C132.661 62.7551 133.369 60.6565 135.098 59.784Z" fill="white"/>
</g>
<path d="M36.2189 63.3918L39.8816 87.8365H57.9596L62.1097 63.5255L36.2189 63.3918Z" fill="#EBB373" fill-opacity="0.54"/>
<path d="M33.6251 63.8713V61.474C33.6251 61.474 40.7226 59.6505 43.0256 56.4829C45.3286 53.3153 47.3408 49.291 47.3408 49.291H49.8324V63.8713H33.6251Z" fill="#263238"/>
<path d="M64.7035 63.8713V61.474C64.7035 61.474 57.6059 59.6505 55.3029 56.4829C52.9999 53.3153 50.9878 49.291 50.9878 49.291H48.4962V63.8713H64.7035Z" fill="#263238"/>
<path d="M52.3005 47.5461H45.6588V49.9749H52.3005V47.5461Z" fill="#263238"/>
<path d="M49.8402 41.6904H48.0875V48.7644H49.8402V41.6904Z" fill="#263238"/>
<path d="M55.7903 120.44H42.5383V122.53H55.7903V120.44Z" fill="#263238"/>
<path d="M56.5998 125.572H41.7366V127.663H56.5998V125.572Z" fill="#263238"/>
<path d="M55.4052 126.791H43.1907V130.383H55.4052V126.791Z" fill="#263238"/>
<path d="M56.0968 238.851H42.5147V240.643H56.0968V238.851Z" fill="#263238"/>
<path d="M56.3798 243.684H42.2239V245.791H56.3798V243.684Z" fill="#263238"/>
<path d="M40.2039 309.127L44.0475 245.791H54.2419L58.4077 309.261L40.2039 309.127Z" fill="#263238"/>
<path d="M60.6635 308.891H37.2014V311.501H60.6635V308.891Z" fill="#263238"/>
<path d="M64.7585 311.5H32.8862V318.276H64.7585V311.5Z" fill="#263238"/>
<path d="M36.1718 63.3918L39.4101 87.9858H41.5401L39.2529 63.3918H36.1718Z" fill="#263238"/>
<path d="M62.1097 63.3132L59.0286 87.9072H56.8986L59.0286 63.3132H62.1097Z" fill="#263238"/>
<path d="M49.9818 87.8364H48.0875L47.608 62.032H50.9328L49.9818 87.8364Z" fill="#263238"/>
<path d="M59.0286 85.958H38.8599V91.2163H59.0286V85.958Z" fill="#263238"/>
<path d="M61.0644 91.2163H37.2643V93.2206H61.0644V91.2163Z" fill="#263238"/>
<path d="M40.8327 92.2222L43.906 95.9006V245.791H54.1082V96.0657L56.5999 92.2222H40.8327Z" fill="#263238"/>
<path d="M55.7903 99.249H42.5383V101.34H55.7903V99.249Z" fill="#263238"/>
<path opacity="0.3" d="M43.906 95.9007H54.1082L55.9475 93.2205H41.5401L43.906 95.9007Z" fill="black"/>
<path opacity="0.3" d="M54.1004 101.332H43.9059V102.692H54.1004V101.332Z" fill="black"/>
<path opacity="0.3" d="M59.0286 89.8564H38.8599V91.2162H59.0286V89.8564Z" fill="black"/>
<path opacity="0.3" d="M61.8739 66.6693H36.4625L36.2189 63.8711H62.0154L61.8739 66.6693Z" fill="black"/>
<path opacity="0.3" d="M54.1004 122.531H43.9059V123.843H54.1004V122.531Z" fill="black"/>
<path opacity="0.3" d="M54.1004 130.453H43.9059V131.766H54.1004V130.453Z" fill="black"/>
<path d="M256.44 310.832L250.152 311.446L247.244 295.333L257.682 294.201L256.44 310.832Z" fill="#9F5B53"/>
<path d="M249.241 308.671H251.489C251.999 308.671 252.463 308.93 252.77 309.339C254.067 311.108 255.041 310.439 256.448 308.773C257.344 308.671 257.588 309.693 257.659 309.976L259.341 316.083C259.49 316.594 259.191 317.12 258.68 317.27C258.586 317.293 258.5 317.309 258.405 317.309H240.618C237.789 317.309 237.199 314.456 238.37 314.196C243.613 313.041 247.323 311.493 248.942 309.968C249.241 309.701 248.934 309.504 249.256 308.671H249.241Z" fill="#263238"/>
<path d="M245.892 310.754C246.6 310.738 247.307 310.644 247.999 310.479C248.062 310.455 248.101 310.385 248.077 310.322C248.062 310.29 248.038 310.259 247.999 310.243C247.684 310.086 244.878 308.773 244.171 309.276C244.037 309.363 243.967 309.52 243.99 309.669C243.99 309.96 244.132 310.235 244.367 310.4C244.823 310.675 245.358 310.793 245.892 310.746V310.754ZM247.559 310.314C246.733 310.471 245.193 310.675 244.556 310.196C244.391 310.062 244.289 309.874 244.281 309.661C244.265 309.599 244.297 309.528 244.352 309.496C244.737 309.221 246.395 309.803 247.559 310.314Z" fill="#407BFF"/>
<path d="M247.967 310.487C247.967 310.487 248.03 310.494 248.054 310.487C248.093 310.455 248.109 310.4 248.093 310.353C248.093 310.235 247.433 307.468 245.892 307.649C245.515 307.704 245.405 307.885 245.389 308.034C245.295 308.765 247.063 310.156 247.904 310.502L247.967 310.479V310.487ZM246.049 307.869C247.024 307.869 247.59 309.48 247.779 310.125C246.859 309.638 245.578 308.49 245.656 308.042C245.656 308.003 245.656 307.901 245.939 307.877H246.042L246.049 307.869Z" fill="#407BFF"/>
<path d="M249.586 311.831C249.524 311.831 249.461 311.799 249.421 311.736C249.036 311.123 248.376 310.699 247.653 310.597C247.543 310.581 247.472 310.479 247.488 310.377C247.503 310.267 247.598 310.204 247.708 310.212C248.541 310.329 249.303 310.817 249.751 311.532C249.806 311.626 249.783 311.744 249.689 311.799C249.657 311.823 249.618 311.831 249.586 311.831Z" fill="#407BFF"/>
<path d="M248.195 312.876C248.132 312.876 248.069 312.845 248.03 312.782C247.645 312.169 246.985 311.744 246.262 311.642C246.152 311.626 246.081 311.532 246.097 311.422C246.112 311.312 246.215 311.249 246.317 311.257C247.15 311.367 247.92 311.862 248.36 312.577C248.415 312.672 248.392 312.79 248.297 312.845C248.266 312.868 248.227 312.876 248.195 312.876Z" fill="#407BFF"/>
<path d="M246.458 313.764C246.395 313.764 246.332 313.733 246.293 313.67C245.908 313.057 245.248 312.633 244.525 312.53C244.415 312.515 244.344 312.412 244.36 312.31C244.375 312.2 244.47 312.13 244.58 312.145C245.413 312.263 246.175 312.75 246.623 313.466C246.678 313.56 246.655 313.678 246.56 313.733C246.529 313.757 246.49 313.764 246.458 313.764Z" fill="#407BFF"/>
<path opacity="0.3" d="M248.918 304.537L249.264 306.525L256.802 305.865L256.975 303.727L248.918 304.537Z" fill="black"/>
<path d="M363.824 303.405L359.288 307.806L346.98 297.007L354.447 289.618L363.824 303.405Z" fill="#9F5B53"/>
<path d="M356.844 306.195L358.605 304.796C359.006 304.482 359.532 304.387 360.019 304.521C362.134 305.103 362.48 303.971 362.55 301.793C363.187 301.157 364.012 301.809 364.24 301.982L369.357 305.716C369.789 306.022 369.892 306.627 369.577 307.052C369.522 307.13 369.459 307.193 369.381 307.256C367.251 308.954 366.237 309.756 363.58 311.87L355.461 318.331C353.244 320.092 351.012 318.229 351.759 317.293C355.138 313.128 357.08 309.606 357.402 307.406C357.473 307.013 357.103 307.044 356.844 306.195Z" fill="#263238"/>
<path d="M355.524 309.913C356.066 309.457 356.561 308.946 357.001 308.388C357.041 308.333 357.017 308.254 356.962 308.215C356.93 308.199 356.891 308.192 356.86 308.199C356.514 308.278 353.504 308.993 353.26 309.826C353.213 309.976 353.252 310.141 353.362 310.251C353.543 310.479 353.826 310.605 354.117 310.589C354.643 310.518 355.138 310.282 355.524 309.913ZM356.553 308.53C356.003 309.166 354.926 310.282 354.124 310.306C353.912 310.306 353.716 310.219 353.574 310.062C353.519 310.015 353.504 309.944 353.527 309.881C353.661 309.426 355.319 308.852 356.553 308.522V308.53Z" fill="#407BFF"/>
<path d="M356.978 308.411C356.978 308.411 357.033 308.38 357.048 308.356C357.056 308.309 357.033 308.254 356.993 308.231C356.923 308.136 354.683 306.384 353.59 307.484C353.323 307.759 353.354 307.971 353.433 308.105C353.818 308.742 356.058 308.726 356.938 308.474L356.978 308.419V308.411ZM353.849 307.563C354.612 306.957 356.058 307.869 356.608 308.254C355.586 308.443 353.873 308.341 353.653 307.94C353.629 307.908 353.566 307.83 353.771 307.633L353.849 307.563Z" fill="#407BFF"/>
<path d="M356.703 308.718C356.64 308.718 356.569 308.687 356.537 308.624C356.482 308.53 356.514 308.412 356.608 308.357C357.331 307.924 358.235 307.838 359.029 308.113C359.131 308.152 359.186 308.262 359.147 308.364C359.116 308.467 358.998 308.522 358.895 308.482C358.212 308.239 357.426 308.317 356.805 308.695C356.773 308.71 356.742 308.726 356.703 308.726V308.718Z" fill="#407BFF"/>
<path d="M356.27 310.416C356.207 310.416 356.137 310.384 356.105 310.322C356.05 310.227 356.082 310.109 356.176 310.054C356.899 309.622 357.803 309.536 358.597 309.811C358.699 309.85 358.754 309.96 358.715 310.062C358.683 310.164 358.565 310.219 358.463 310.18C357.779 309.936 356.993 310.015 356.372 310.392C356.341 310.408 356.309 310.424 356.27 310.424V310.416Z" fill="#407BFF"/>
<path d="M355.461 312.184C355.398 312.184 355.327 312.153 355.296 312.09C355.241 311.996 355.272 311.878 355.366 311.823C356.089 311.391 356.993 311.304 357.787 311.579C357.889 311.619 357.944 311.729 357.905 311.831C357.866 311.933 357.756 311.988 357.654 311.949C356.97 311.705 356.184 311.784 355.563 312.161C355.531 312.177 355.5 312.192 355.461 312.192V312.184Z" fill="#407BFF"/>
<path opacity="0.3" d="M354.022 303.161L355.524 304.505L361.01 299.302L359.823 297.518L354.022 303.161Z" fill="black"/>
<path d="M295.088 195.754C295.088 195.754 304.316 239.149 307.507 256.944C312.231 276.571 350.163 305.731 350.163 305.731L362.668 296.016C362.668 296.016 335.677 268.349 327.133 255.129C325.318 234.158 322.268 195.754 322.268 195.754H295.08H295.088Z" fill="#263238"/>
<path d="M289.036 195.754C289.036 195.754 246.254 228.884 244.407 247.732C242.489 267.351 244.823 304.513 244.823 304.513H259.254C259.254 304.513 261.07 270.44 262.288 251.081C275.139 238.473 289.775 231.384 300.472 222.093C304.544 218.564 308.922 215.011 311.956 211.168C315.194 207.057 316.978 201.115 317.536 195.754H289.02H289.036Z" fill="#263238"/>
<path d="M297.47 131.349L296.416 127.529L290.592 132.426C291.724 133.259 292.911 134.022 294.137 134.713C295.057 135.232 296.22 134.926 296.762 134.014L297.234 133.236C297.572 132.662 297.658 131.978 297.477 131.341L297.47 131.349Z" fill="#9F5B53"/>
<path d="M291.024 123.395L288.368 128.936L290.608 132.426L296.432 127.529L291.024 123.395Z" fill="#9F5B53"/>
<path d="M281.322 116.154L280.155 125.18C279.93 126.915 281.155 128.504 282.89 128.728L298.043 130.688C299.778 130.913 301.367 129.688 301.591 127.953L302.759 118.926C302.983 117.191 301.758 115.603 300.023 115.379L284.87 113.419C283.135 113.194 281.547 114.419 281.322 116.154Z" fill="#263238"/>
<path d="M310.997 158.553C307.436 158.553 300.857 155.535 292.361 148.602C283.125 141.049 284.005 135.114 284.642 130.744C284.949 129.384 284.988 127.978 284.76 126.602L285.577 126.374C285.852 127.86 285.821 129.384 285.483 130.862C284.839 135.224 284.037 140.664 292.903 147.95C304.198 157.201 311.335 158.867 312.789 157.107C313.732 155.975 312.427 152.831 307.35 148.563C301.667 143.823 301.376 136.576 301.179 131.287C301.195 129.722 301.038 128.158 300.708 126.626L301.486 126.366C301.855 127.97 302.028 129.62 302.005 131.263C302.209 136.396 302.469 143.422 307.876 147.918C312.828 152.045 314.958 155.763 313.425 157.618C312.797 158.27 311.908 158.608 311.004 158.545L310.997 158.553Z" fill="#263238"/>
<path d="M297.147 118.27L292.754 116.816C292.243 116.628 291.928 116.125 291.975 115.582L292.313 112.894C292.368 112.47 292.761 112.171 293.186 112.226C293.241 112.226 293.296 112.25 293.351 112.265L297.745 113.719C298.256 113.908 298.57 114.411 298.523 114.953L298.177 117.642C298.122 118.066 297.729 118.365 297.305 118.31C297.249 118.31 297.202 118.294 297.155 118.27H297.147Z" fill="#263238"/>
<path d="M295.426 113.531L292.887 112.69C292.596 112.587 292.408 112.297 292.439 111.982L292.636 110.426C292.659 110.182 292.879 110.009 293.123 110.033C293.162 110.033 293.194 110.049 293.233 110.056L295.764 110.898C296.063 111 296.251 111.298 296.22 111.613L296.015 113.169C295.992 113.405 295.787 113.578 295.552 113.554C295.505 113.554 295.465 113.538 295.426 113.523V113.531Z" fill="#263238"/>
<path d="M255.414 112.818L254.251 121.806C254.098 122.986 254.931 124.066 256.111 124.218L263.243 125.141C264.423 125.293 265.503 124.461 265.655 123.281L266.818 114.293C266.97 113.114 266.138 112.034 264.958 111.881L257.826 110.959C256.646 110.806 255.566 111.639 255.414 112.818Z" fill="black"/>
<path d="M260.182 116.226L259.729 119.726C259.472 121.715 260.876 123.535 262.865 123.793L270.652 124.8C272.641 125.057 274.462 123.653 274.719 121.664L275.172 118.164C275.429 116.176 274.025 114.355 272.037 114.097L264.249 113.09C262.26 112.833 260.439 114.237 260.182 116.226Z" fill="#263238"/>
<path d="M262.87 124.008C261.856 123.882 260.936 123.348 260.323 122.53C259.702 121.729 259.419 120.707 259.545 119.693L260.001 116.195C260.292 114.105 262.202 112.627 264.3 112.871C264.418 112.886 264.497 112.988 264.481 113.106C264.465 113.224 264.363 113.303 264.245 113.287C262.375 113.051 260.661 114.372 260.418 116.242L259.962 119.74C259.734 121.611 261.054 123.324 262.917 123.576C263.027 123.576 263.113 123.678 263.106 123.788V123.804C263.09 123.922 262.98 124 262.862 123.992L262.87 124.008Z" fill="white"/>
<path d="M267.906 115.128L266.921 122.744C266.792 123.738 267.494 124.649 268.488 124.777L274.537 125.56C275.532 125.688 276.442 124.986 276.571 123.992L277.556 116.376C277.685 115.382 276.983 114.471 275.988 114.343L269.939 113.56C268.945 113.432 268.034 114.134 267.906 115.128Z" fill="#263238"/>
<path d="M269.354 115.329L268.369 122.945C268.24 123.939 268.942 124.85 269.937 124.979L275.986 125.761C276.98 125.89 277.891 125.188 278.019 124.193L279.004 116.577C279.133 115.583 278.431 114.672 277.437 114.544L271.388 113.761C270.393 113.633 269.483 114.335 269.354 115.329Z" fill="black"/>
<path d="M273.369 118.214L272.985 121.176C272.768 122.86 273.956 124.401 275.639 124.619L282.218 125.47C283.901 125.687 285.442 124.499 285.66 122.816L286.043 119.854C286.261 118.171 285.073 116.629 283.39 116.412L276.811 115.561C275.127 115.343 273.586 116.531 273.369 118.214Z" fill="#263238"/>
<path d="M275.65 124.825C273.85 124.59 272.585 122.939 272.813 121.147L273.19 118.192C273.426 116.392 275.076 115.126 276.868 115.354C276.979 115.362 277.057 115.464 277.049 115.574C277.034 115.7 276.931 115.779 276.813 115.771C275.249 115.574 273.819 116.675 273.607 118.239L273.229 121.194C273.033 122.758 274.133 124.189 275.697 124.401C275.807 124.409 275.886 124.511 275.878 124.621C275.878 124.747 275.776 124.825 275.666 124.818H275.65V124.825Z" fill="white"/>
<path d="M281.329 116.162L280.162 125.188C279.937 126.923 281.162 128.512 282.897 128.736L283.902 128.866C285.637 129.091 287.226 127.866 287.45 126.131L288.618 117.104C288.842 115.369 287.617 113.781 285.882 113.557L284.877 113.427C283.142 113.202 281.554 114.427 281.329 116.162Z" fill="black"/>
<path d="M281.404 114.45H284.273L283.282 118.333L277.922 116.407L278.857 115.511C279.541 114.843 280.453 114.458 281.412 114.45H281.404Z" fill="#9F5B53"/>
<path d="M276.546 121.674L277.882 116.392L283.243 118.318C283.243 118.318 283.204 124.676 279.069 124.354L276.546 121.674Z" fill="#9F5B53"/>
<path d="M320.169 154.607C319.705 154.78 319.517 154.827 319.226 154.922L318.448 155.134C317.961 155.26 317.473 155.37 316.986 155.456C316.019 155.645 315.076 155.747 314.133 155.833C312.27 155.975 310.407 155.959 308.552 155.794C306.721 155.645 304.905 155.354 303.113 154.929C302.225 154.733 301.36 154.489 300.504 154.222L299.859 154.026L299.49 153.908C299.285 153.845 299.081 153.774 298.877 153.695C298.114 153.389 297.399 152.972 296.754 152.454C295.732 151.605 294.891 150.567 294.263 149.404C293.76 148.469 293.335 147.486 293.013 146.48C292.478 144.704 292.125 142.888 291.944 141.041C291.598 137.582 291.653 134.093 292.117 130.65H296.778C297.297 133.715 297.973 136.749 298.814 139.744C299.191 141.112 299.686 142.44 300.291 143.729C300.535 144.248 300.826 144.743 301.172 145.207C301.345 145.474 301.588 145.694 301.871 145.835C301.903 145.835 301.903 145.817 301.871 145.78H302.099L302.641 145.883L303.726 146.071L304.819 146.213C305.542 146.338 306.265 146.37 306.988 146.448C307.711 146.527 308.426 146.551 309.134 146.551C310.541 146.582 311.948 146.535 313.339 146.393C314.015 146.323 314.691 146.236 315.335 146.118L316.279 145.938L316.695 145.843C316.805 145.843 317.01 145.749 316.931 145.788L320.177 154.607H320.169Z" fill="#9F5B53"/>
<path d="M314.934 124.362C313.52 130.658 313.174 135.35 314.447 140.318C314.447 140.318 313.025 144.924 304.583 144.924C295.261 144.924 300.323 140.318 300.323 140.318C305.44 139.107 305.455 135.342 304.701 131.813L314.934 124.362Z" fill="#9F5B53"/>
<path opacity="0.2" d="M279.164 203.921C279.164 203.921 296.338 209.36 307.334 207.285C318.33 205.21 322.669 200.698 322.669 200.698L283.99 199.991L279.164 203.921Z" fill="black"/>
<path d="M318.416 140.192L314.219 139.39C309.511 139.123 307.09 139.076 302.382 139.343C300.291 139.539 296.668 139.72 295.002 140.05C292.298 140.585 290.065 143.603 289.665 146.33C287.157 163.143 282.984 200.329 282.984 200.329C297.776 206.719 312.804 206.939 323.887 199.959C324.264 195.385 322.944 172.386 324.665 150.583C325.003 146.275 322.425 140.899 318.401 140.2L318.416 140.192Z" fill="#201F1F"/>
<path d="M291.598 203.614H279.667C277.301 203.661 275.352 201.783 275.304 199.417C275.304 199.197 275.312 198.985 275.344 198.765L276.696 185.874C277.041 183.155 279.321 181.095 282.064 181.025H293.995C296.361 180.977 298.311 182.856 298.358 185.222C298.358 185.442 298.35 185.654 298.318 185.874L296.919 198.765C296.581 201.468 294.326 203.528 291.598 203.614Z" fill="#263238"/>
<path d="M294.027 181.056L291.606 203.646C294.341 203.575 296.621 201.516 296.967 198.796L298.389 185.874C298.688 183.532 297.029 181.386 294.679 181.087C294.467 181.064 294.247 181.048 294.035 181.056H294.027Z" fill="black"/>
<path d="M297.32 186.039C297.061 186.039 296.849 185.835 296.841 185.576C296.841 185.426 296.904 185.293 297.014 185.198C297.281 184.978 323.423 163.552 318.283 140.624C318.228 140.373 318.385 140.121 318.637 140.058C318.888 140.003 319.132 140.153 319.187 140.404C324.437 163.921 297.87 185.686 297.595 185.929C297.509 185.992 297.407 186.031 297.304 186.031L297.32 186.039Z" fill="#263238"/>
<path d="M294.2 181.905H280.217C279.745 181.913 279.289 182.015 278.857 182.203C277.678 183.1 276.916 184.436 276.735 185.913L276.083 191.903C276.483 192.186 276.971 192.335 277.458 192.327H291.441C293.312 192.186 294.892 190.873 295.371 189.057L296.401 185.206C296.872 183.382 295.882 181.905 294.192 181.905H294.2Z" fill="black"/>
<path d="M291.543 191.486H277.56C275.87 191.486 274.88 190.008 275.352 188.193L276.373 184.341C276.861 182.526 278.441 181.213 280.319 181.056H294.302C295.992 181.056 296.982 182.549 296.503 184.349L295.481 188.201C294.994 190.016 293.422 191.329 291.551 191.486H291.543Z" fill="#263238"/>
<path opacity="0.2" d="M289.044 151.856C288.753 155.157 287.432 160.07 287.33 163.756C291.032 159.637 294.703 153.2 289.044 151.856Z" fill="black"/>
<path d="M280.295 124.087L272.239 138.832L299.749 143.477L297.556 152.548L290.616 153.648C290.616 153.648 263.679 148.178 261.4 143.289C259.089 138.337 271.775 127.16 276.538 121.674L280.288 124.095L280.295 124.087Z" fill="#9F5B53"/>
<path d="M296.825 153.53C292.416 157.476 278.158 154.804 278.158 154.804L280.751 139.39C280.751 139.39 290.702 139.39 298.483 140.349C307.177 141.371 301.793 149.058 296.833 153.53H296.825Z" fill="#3D3C3C"/>
<path d="M299.317 118.184C299.246 118.679 298.932 119.056 298.601 119.025C298.279 118.993 298.067 118.561 298.138 118.066C298.208 117.579 298.531 117.186 298.861 117.225C299.183 117.264 299.387 117.681 299.317 118.184Z" fill="#263238"/>
<path d="M298.979 119.064C298.169 120.526 297.163 121.87 296 123.073C296.778 123.985 298.326 123.757 298.326 123.757L298.979 119.064Z" fill="#892B29"/>
<path d="M299.12 114.938C299.026 114.906 298.955 114.836 298.931 114.741C298.884 114.584 298.979 114.419 299.136 114.38C300.055 114.183 301.022 114.45 301.706 115.103C301.824 115.221 301.824 115.401 301.706 115.519C301.596 115.637 301.415 115.637 301.297 115.519C300.755 115.008 300 114.788 299.269 114.922C299.222 114.946 299.167 114.946 299.112 114.922L299.12 114.938Z" fill="#263238"/>
<path d="M316.106 118.836C314.864 124.896 314.455 128.496 310.91 131.31C307.483 134.124 302.429 133.621 299.623 130.202C298.586 128.944 297.965 127.396 297.831 125.769C297.297 120.157 299.387 111.196 305.746 109.373C310.014 108.021 314.573 110.387 315.925 114.655C316.357 116.007 316.42 117.453 316.114 118.836H316.106Z" fill="#9F5B53"/>
<path d="M302.366 121.752L299.71 121.988C299.71 121.988 299.317 118.184 301.4 116.022C300 115.763 298.719 113.562 298.955 110.52C299.199 107.298 304.103 102.244 307.664 105.49C311.5 108.988 319.037 109.797 317.544 111.927C319.753 111.519 324.964 118.797 319.753 122.373C314.541 125.949 316.302 129.416 313.818 130.831C311.335 132.245 303.121 130.783 302.366 121.76V121.752Z" fill="#263238"/>
<path d="M317.3 112.053C317.3 112.053 318.369 111.07 317.159 108.948C318.92 109.876 318.566 111.707 317.3 112.053Z" fill="#263238"/>
<path d="M305.314 121.587C304.968 123.096 304.151 124.456 302.987 125.47C301.431 126.806 300.166 125.722 300.205 123.914C300.205 122.263 301.093 119.575 302.846 118.946C304.599 118.317 305.707 119.772 305.314 121.587Z" fill="#9F5B53"/>
<path d="M325.333 183.72C325.223 183.72 325.137 183.626 325.137 183.524L325.396 164.731C325.396 164.621 325.483 164.534 325.593 164.534C325.703 164.534 325.789 164.628 325.789 164.731L325.53 183.524C325.53 183.634 325.443 183.72 325.333 183.72Z" fill="#407BFF"/>
<path d="M325.278 186.071C325.168 186.071 325.082 185.984 325.082 185.874V185.253C325.082 185.143 325.168 185.057 325.278 185.057C325.388 185.057 325.475 185.143 325.475 185.253V185.874C325.475 185.984 325.388 186.071 325.278 186.071Z" fill="#407BFF"/>
<path d="M200.265 190.85C200.123 190.999 199.117 193.223 198.834 194.08C198.551 194.937 198.74 201.642 199.55 201.241C200.359 200.84 200.501 200.533 200.65 199.071C200.792 197.609 200.792 196.25 201.177 196.603C201.562 196.957 202.277 201.241 201.892 202.451C201.507 203.662 200.744 205.831 201.507 206.381C202.269 206.939 202.796 206.027 202.796 206.027C202.796 206.027 202.89 207.238 203.558 206.782C204.226 206.326 206.804 203.151 207.087 201.689C207.37 200.227 205.963 194.041 205.806 192.508C205.759 192.044 205.13 189.089 205.13 189.089L199.738 189.388L200.265 190.85Z" fill="#EBB373"/>
<path d="M186.109 118.931C186.109 118.931 191.305 119.575 193.466 124.826C195.635 130.076 198.174 157.94 199.738 161.681C201.908 166.885 205.13 189.089 205.13 189.089L200.257 190.858C200.257 190.858 191.084 170.72 190.385 163.426C189.685 156.124 188.428 150.866 188.428 150.866L186.109 118.939V118.931Z" fill="#A8A5A9"/>
<path d="M153.239 119.858C153.239 119.858 145.85 120.511 143.508 130.729C141.794 138.18 137.314 153.798 137.314 153.798L123.74 167.969L125.996 175.35C125.996 175.35 144.019 165.454 145.968 162.955C147.917 160.455 153.6 146.511 153.6 146.511L153.246 119.858H153.239Z" fill="#A8A5A9"/>
<path d="M191.218 292.283L189.426 308.899L194.897 309.724L200.642 294.106L191.218 292.283Z" fill="#263238"/>
<path d="M199.235 305.653C199.322 304.639 199.259 303.79 198.166 303.735L196.626 303.648C196.044 303.648 195.628 304.034 195.164 304.364C191.635 306.824 190.181 303.648 188.813 303.648C187.052 303.648 188.184 309.276 188.098 309.575L186.172 316.107C186.007 316.649 186.345 317.828 186.927 317.985C187.029 318.017 187.139 318.024 187.249 318.024H207.645C210.892 318.024 210.931 314.055 209.595 313.772C203.582 312.53 201.216 310.565 199.235 309.127C199.235 309.127 199.11 307.217 199.235 305.653Z" fill="black"/>
<path opacity="0.4" d="M207.645 318.024H187.249C187.139 318.024 187.037 318.016 186.927 317.985C186.526 317.883 186.251 317.301 186.164 316.774V316.279H210.255C209.933 317.207 209.131 318.032 207.653 318.032L207.645 318.024Z" fill="white"/>
<path d="M202.018 311.115C201.491 311.603 201.059 312.184 200.737 312.821C200.666 312.963 200.697 313.143 200.839 313.222C200.972 313.293 201.169 313.261 201.24 313.12C201.389 312.813 201.57 312.522 201.774 312.247L201.806 312.2C201.829 312.169 201.861 312.137 201.884 312.098C201.939 312.035 201.994 311.964 202.049 311.901C202.167 311.768 202.293 311.65 202.419 311.532C202.529 311.43 202.536 311.218 202.419 311.115C202.301 311.005 202.12 311.005 202.002 311.115H202.018Z" fill="#121212"/>
<path d="M200.147 309.976C199.668 310.44 199.251 310.974 198.937 311.564C198.866 311.697 198.897 311.894 199.039 311.964C199.18 312.035 199.361 312.004 199.44 311.862C199.589 311.587 199.762 311.32 199.958 311.061C199.974 311.045 199.982 311.037 199.958 311.061L199.99 311.021C199.99 311.021 200.037 310.958 200.068 310.927C200.116 310.864 200.171 310.809 200.226 310.746C200.336 310.628 200.446 310.51 200.564 310.392C200.674 310.282 200.682 310.078 200.564 309.976C200.446 309.874 200.265 309.866 200.147 309.976Z" fill="#263238"/>
<path d="M198.874 308.946C198.386 309.213 197.97 309.645 197.734 310.148C197.703 310.219 197.679 310.298 197.703 310.376C197.718 310.447 197.773 310.518 197.836 310.549C197.97 310.62 198.166 310.589 198.237 310.447C198.292 310.329 198.355 310.227 198.426 310.117C198.441 310.093 198.457 310.07 198.473 310.046C198.489 310.031 198.528 309.991 198.473 310.046C198.481 310.038 198.489 310.023 198.496 310.015C198.536 309.968 198.575 309.921 198.622 309.873C198.709 309.787 198.803 309.7 198.897 309.622C198.882 309.638 198.85 309.661 198.889 309.63L198.921 309.606C198.921 309.606 198.976 309.567 199.007 309.551C199.062 309.52 199.117 309.488 199.172 309.457C199.306 309.386 199.361 309.182 199.275 309.056C199.188 308.93 199.015 308.867 198.874 308.954V308.946Z" fill="#263238"/>
<path d="M199.023 306.832C198.449 306.832 197.876 306.95 197.349 307.17C197.207 307.225 197.09 307.366 197.145 307.531C197.192 307.665 197.357 307.799 197.506 307.736C197.758 307.634 198.009 307.555 198.276 307.5C198.339 307.484 198.402 307.476 198.465 307.468C198.473 307.468 198.591 307.453 198.528 307.461C198.559 307.461 198.583 307.461 198.614 307.453C198.748 307.437 198.889 307.429 199.023 307.429C199.18 307.429 199.322 307.296 199.322 307.13C199.322 306.965 199.196 306.832 199.023 306.832Z" fill="#263238"/>
<g opacity="0.3">
<path d="M193.277 307.618C193.246 308.199 193.042 308.844 192.523 309.111C192.201 309.276 191.823 309.276 191.462 309.26L188.216 309.166L188.2 309.135C188.027 307.594 187.571 303.845 188.915 303.845C189.968 303.845 191.077 305.999 193.285 305.37C193.27 306.187 193.301 307.225 193.285 307.61L193.277 307.618Z" fill="black"/>
</g>
<path d="M155.204 178.926L179.232 179.665L194.849 180.081C194.849 180.081 207.135 231.077 208.109 240.682C209.084 250.287 201.617 306.565 201.617 306.565L186.164 306.172C186.164 306.172 190.306 249.666 189.261 244.463C188.357 239.935 178.32 210.885 175.757 203.504C175.498 205.013 175.239 206.538 174.964 208.039C174.319 214.846 172.236 236.563 171.332 244.644C171.332 244.644 169.367 290.797 167.866 305.087L155.911 305.11C153.553 285.193 152.539 218.36 152.539 218.36C151.651 203.842 155.196 178.926 155.196 178.926H155.204Z" fill="#263238"/>
<g opacity="0.5">
<path d="M187.61 182.777C189.057 187.682 192.924 191.62 197.695 193.058C197.954 193.137 197.844 193.553 197.585 193.475C192.672 191.997 188.695 187.949 187.209 182.895C187.131 182.628 187.532 182.518 187.61 182.777Z" fill="black"/>
<path d="M174.618 182.777C174.901 187.069 175.176 191.368 175.459 195.66C175.475 195.935 175.891 195.935 175.875 195.66C175.726 193.459 175.585 191.251 175.443 189.042C176.473 189.859 177.667 188.869 178.005 187.776C178.556 186.008 178.351 183.901 177.919 182.125C177.848 181.858 177.447 181.976 177.518 182.235C177.817 183.477 177.95 184.758 177.864 186.031C177.825 186.684 177.762 187.431 177.471 188.028C177.141 188.696 176.308 189.254 175.647 188.649C175.577 188.586 175.49 188.578 175.427 188.617C175.302 186.676 175.176 184.719 175.042 182.777C175.027 182.502 174.61 182.502 174.626 182.777H174.618Z" fill="black"/>
<path d="M162.395 183.508C162.45 189.199 158.214 193.962 152.72 194.41C152.46 194.434 152.46 194.009 152.72 193.986C157.986 193.553 162.042 188.955 161.987 183.508C161.987 183.233 162.395 183.233 162.395 183.508Z" fill="black"/>
<path d="M159.11 246.679C157.318 247.363 155.392 247.371 153.592 246.711C153.333 246.616 153.443 246.184 153.71 246.286C155.447 246.923 157.271 246.915 159 246.255C159.259 246.153 159.369 246.585 159.118 246.679H159.11Z" fill="black"/>
</g>
<path d="M194.063 173.18L190.306 131.852L186.109 118.931C182.462 118.703 167.772 116.934 152.861 119.929L152.963 177.157C152.963 177.157 150.653 181.3 155.376 181.048C174.987 183.155 194.166 180.081 194.166 180.081C196.272 179.374 196.272 176.615 194.063 173.18Z" fill="#3A3C3F"/>
<path opacity="0.2" d="M153.6 154.183V134.273C153.6 134.273 151.344 144.436 151.997 147.423C152.649 150.41 153.6 154.183 153.6 154.183Z" fill="black"/>
<path d="M166.828 293.085L164.502 310.141L158.945 310.424L157.145 293.981L166.828 293.085Z" fill="#263238"/>
<path d="M154.213 318.056H166.64C166.64 318.056 166.907 317.537 166.601 316.146C166.553 315.926 166.491 315.69 166.412 315.431C166.412 315.415 166.412 315.407 166.404 315.391C166.286 315.006 166.153 314.534 166.011 314.024C165.445 311.941 165.052 307.154 165.052 307.154C165.052 307.154 162.702 304.796 160.281 305.896C158.159 306.863 158.489 308.097 158.489 308.097C158.489 308.097 158.458 311.273 156.846 312.711C155.848 313.599 154.858 314.283 154.386 315.391C154.3 315.596 154.229 315.816 154.174 316.051C154.174 316.083 154.166 316.106 154.158 316.138C154.056 316.672 154.064 317.293 154.205 318.048L154.213 318.056Z" fill="black"/>
<g opacity="0.4">
<path d="M166.601 316.146C166.907 317.537 166.64 318.056 166.64 318.056H154.213C154.072 317.301 154.064 316.673 154.166 316.146H166.608H166.601Z" fill="white"/>
</g>
<path d="M159.165 310.345C159.865 309.803 160.784 309.873 161.413 310.487C161.586 310.652 161.845 310.392 161.672 310.227C160.886 309.465 159.77 309.418 158.906 310.086C158.717 310.227 158.984 310.487 159.165 310.345Z" fill="#263238"/>
<path d="M158.811 311.501C159.511 310.958 160.43 311.029 161.059 311.642C161.232 311.807 161.492 311.548 161.319 311.383C160.533 310.62 159.417 310.573 158.552 311.241C158.363 311.383 158.631 311.642 158.811 311.501Z" fill="#263238"/>
<path d="M158.465 312.569C159.165 312.027 160.085 312.098 160.713 312.711C160.878 312.876 161.146 312.617 160.973 312.452C160.187 311.689 159.071 311.642 158.206 312.31C158.017 312.452 158.285 312.711 158.465 312.569Z" fill="#263238"/>
<path d="M144.742 313.631L151.266 314.267L156.092 297.746L146.165 296.669L144.742 313.631Z" fill="#B97964"/>
<path d="M152.217 311.383H149.89C149.364 311.383 148.876 311.65 148.562 312.074C147.218 313.906 146.212 313.214 144.75 311.493C143.822 311.383 143.571 312.452 143.492 312.735L141.747 319.07C141.598 319.597 141.904 320.147 142.431 320.304C142.525 320.327 142.62 320.343 142.722 320.343H161.177C164.109 320.343 164.722 317.388 163.512 317.113C158.072 315.91 154.221 314.315 152.547 312.727C152.232 312.452 152.555 312.24 152.217 311.383Z" fill="#263238"/>
<path d="M157.271 313.183C157.514 313.01 157.664 312.727 157.664 312.42C157.687 312.255 157.609 312.098 157.475 312.011C156.744 311.493 153.836 312.852 153.506 313.017C153.466 313.033 153.443 313.057 153.427 313.096C153.404 313.167 153.435 313.238 153.506 313.261C154.221 313.434 154.952 313.528 155.691 313.544C156.241 313.599 156.799 313.473 157.271 313.19V313.183ZM157.294 312.231C157.357 312.271 157.381 312.341 157.373 312.404C157.357 312.624 157.255 312.821 157.082 312.962C156.422 313.458 154.826 313.245 153.962 313.08C155.172 312.546 156.886 311.948 157.294 312.231Z" fill="#407BFF"/>
<path d="M153.608 313.293C154.48 312.931 156.312 311.493 156.217 310.73C156.202 310.573 156.092 310.377 155.691 310.33C154.095 310.149 153.411 313.01 153.411 313.136C153.396 313.183 153.411 313.238 153.451 313.269C153.482 313.277 153.514 313.277 153.545 313.269L153.616 313.293H153.608ZM155.636 310.565C155.934 310.597 155.934 310.699 155.934 310.738C156.021 311.202 154.685 312.397 153.734 312.9C153.93 312.232 154.52 310.557 155.526 310.557H155.636V310.565Z" fill="#407BFF"/>
<path d="M151.855 314.653C151.855 314.653 151.784 314.645 151.753 314.621C151.659 314.566 151.635 314.44 151.69 314.354C152.154 313.615 152.948 313.104 153.804 312.986C153.907 312.978 154.009 313.049 154.025 313.151C154.04 313.253 153.962 313.356 153.859 313.371C153.113 313.474 152.421 313.914 152.02 314.558C151.981 314.621 151.918 314.653 151.855 314.653Z" fill="#407BFF"/>
<path d="M153.301 315.745C153.301 315.745 153.231 315.737 153.199 315.714C153.105 315.659 153.081 315.533 153.136 315.439C153.6 314.7 154.394 314.197 155.251 314.071C155.353 314.055 155.455 314.134 155.471 314.236C155.486 314.346 155.408 314.44 155.306 314.456C154.559 314.558 153.867 314.998 153.466 315.643C153.427 315.706 153.364 315.737 153.301 315.737V315.745Z" fill="#407BFF"/>
<path d="M155.101 316.657C155.101 316.657 155.031 316.649 154.999 316.625C154.905 316.57 154.881 316.444 154.936 316.358C155.4 315.619 156.194 315.108 157.051 314.99C157.153 314.982 157.255 315.053 157.271 315.155C157.286 315.258 157.208 315.36 157.106 315.375C156.359 315.478 155.667 315.918 155.266 316.562C155.227 316.625 155.164 316.657 155.101 316.657Z" fill="#407BFF"/>
<path opacity="0.3" d="M153.545 306.478L152.956 308.506L145.276 307.327L145.41 305.661L153.545 306.478Z" fill="black"/>
<path d="M106.77 314.149L113.294 314.794L118.112 298.272L108.185 297.195L106.77 314.149Z" fill="#B97964"/>
<path d="M114.237 311.909H111.911C111.384 311.909 110.897 312.176 110.582 312.601C109.238 314.432 108.232 313.741 106.77 312.019C105.843 311.909 105.591 312.978 105.513 313.261L103.768 319.596C103.618 320.123 103.925 320.673 104.452 320.83C104.546 320.854 104.64 320.87 104.742 320.87H123.198C126.129 320.87 126.743 317.914 125.532 317.639C120.093 316.437 116.242 314.841 114.567 313.253C114.253 312.978 114.575 312.766 114.237 311.909Z" fill="#263238"/>
<path d="M119.291 313.709C119.535 313.536 119.684 313.253 119.684 312.947C119.708 312.782 119.629 312.624 119.496 312.538C118.765 312.019 115.856 313.379 115.526 313.544C115.487 313.56 115.463 313.583 115.448 313.623C115.424 313.693 115.456 313.764 115.526 313.788C116.242 313.961 116.973 314.055 117.711 314.071C118.262 314.126 118.82 314 119.291 313.717V313.709ZM119.315 312.758C119.378 312.797 119.401 312.868 119.393 312.931C119.378 313.151 119.275 313.348 119.103 313.489C118.442 313.984 116.847 313.772 115.982 313.607C117.193 313.072 118.906 312.475 119.315 312.758Z" fill="#407BFF"/>
<path d="M115.628 313.819C116.501 313.458 118.332 312.019 118.238 311.257C118.222 311.1 118.112 310.911 117.711 310.856C116.116 310.675 115.432 313.544 115.432 313.662C115.416 313.709 115.432 313.764 115.471 313.795C115.503 313.803 115.534 313.803 115.566 313.795L115.636 313.819H115.628ZM117.656 311.092C117.955 311.123 117.955 311.225 117.955 311.265C118.041 311.728 116.705 312.923 115.754 313.426C115.951 312.758 116.54 311.084 117.546 311.084H117.656V311.092Z" fill="#407BFF"/>
<path d="M113.876 315.179C113.876 315.179 113.805 315.171 113.774 315.147C113.679 315.092 113.656 314.967 113.711 314.872C114.174 314.134 114.968 313.631 115.825 313.505C115.927 313.497 116.029 313.568 116.045 313.67C116.061 313.772 115.982 313.874 115.88 313.89C115.133 313.992 114.442 314.432 114.041 315.077C114.001 315.14 113.939 315.171 113.876 315.171V315.179Z" fill="#407BFF"/>
<path d="M115.322 316.264C115.322 316.264 115.251 316.256 115.22 316.232C115.125 316.177 115.102 316.051 115.157 315.965C115.621 315.226 116.414 314.715 117.271 314.597C117.373 314.589 117.476 314.66 117.491 314.762C117.507 314.872 117.428 314.967 117.326 314.982C116.58 315.085 115.888 315.525 115.487 316.169C115.448 316.232 115.385 316.264 115.322 316.264Z" fill="#407BFF"/>
<path d="M117.122 317.183C117.122 317.183 117.051 317.175 117.02 317.152C116.925 317.097 116.902 316.971 116.957 316.885C117.421 316.146 118.214 315.635 119.071 315.517C119.173 315.501 119.276 315.58 119.291 315.682C119.307 315.792 119.228 315.886 119.126 315.902C118.379 316.004 117.688 316.444 117.287 317.089C117.248 317.152 117.185 317.183 117.122 317.183Z" fill="#407BFF"/>
<path opacity="0.3" d="M115.566 307.004L114.976 309.024L107.297 307.845L107.438 306.187L115.566 307.004Z" fill="black"/>
<path d="M157.994 191.148C157.994 191.148 163.7 214.524 166.278 235.321C167.064 241.664 167.214 250.138 165.822 256.378L155.4 308.192L142.282 306.879C144.341 284.533 147.218 256.968 148.035 245.241L132.96 198.324L157.986 191.14L157.994 191.148Z" fill="#9F5B53"/>
<path d="M115.196 249.414C115.495 248.125 115.966 245.5 116.548 242.034L116.493 242.018C116.918 237.436 117.711 216.206 119.158 202.655C120.274 194.025 122.475 188.185 124.699 185.332C124.817 185.182 124.919 185.049 125.013 184.931C125.383 184.467 125.603 184.216 125.603 184.216C126.027 184.318 126.444 184.42 126.86 184.514C127.018 184.546 127.175 184.585 127.324 184.617C143.005 187.894 155.447 183.194 155.447 183.194C156.893 186.754 159.322 194.937 160.375 202.812C158.733 204.612 151.541 206.947 143.28 208.495L140.922 219.145C139.68 225.748 138.092 232.225 136.74 238.049L135.326 244.431C135.239 244.848 135.153 245.264 135.074 245.673C134.359 249.344 117.311 308.49 117.311 308.49L106.204 307.838C106.204 307.838 111.164 266.903 115.18 249.399L115.196 249.414Z" fill="#9F5B53"/>
<path opacity="0.2" d="M157.176 188.24C157.176 188.24 152.382 193.302 142.997 193.388C133.604 193.475 123.072 188.004 123.072 188.004L124.251 185.984L151.289 188.932L156.461 185.984L157.176 188.24Z" fill="black"/>
<path opacity="0.2" d="M140.372 221.613C140.325 221.834 145.866 201.704 145.866 201.704C145.866 201.704 148.625 216.913 142.054 227.328L140.372 221.613Z" fill="black"/>
<path opacity="0.2" d="M156.084 304.827L155.4 308.191L142.29 306.879L142.628 303.216L156.084 304.827Z" fill="black"/>
<path opacity="0.2" d="M117.326 308.506L118.262 305.252L106.637 304.49L106.22 307.854L117.326 308.506Z" fill="black"/>
<path d="M120.447 156.203L116.367 142.298C118.945 138.447 131.71 135.492 131.71 135.492L140.12 135.955C140.12 135.955 143.351 136.679 146.117 137.582C149.812 138.785 151.808 139.76 152.688 141.803C152.688 141.803 154.229 146.346 153.301 155.708C153.05 158.278 152.46 171.868 153.184 176.285L158.41 186.511C143.044 198.482 123.371 186.511 123.371 186.511C124.062 184.397 125.579 179.72 125.894 177.653C125.666 175.02 124.927 173.29 123.811 168.677C123.599 167.788 120.816 157.083 120.439 156.211L120.447 156.203Z" fill="#407BFF"/>
<path opacity="0.7" d="M120.447 156.203L116.367 142.298C118.945 138.447 131.71 135.492 131.71 135.492L140.12 135.955C140.12 135.955 143.351 136.679 146.117 137.582C149.812 138.785 151.808 139.76 152.688 141.803C152.688 141.803 154.229 146.346 153.301 155.708C153.05 158.278 152.46 171.868 153.184 176.285L158.41 186.511C143.044 198.482 123.371 186.511 123.371 186.511C124.062 184.397 125.579 179.72 125.894 177.653C125.666 175.02 124.927 173.29 123.811 168.677C123.599 167.788 120.816 157.083 120.439 156.211L120.447 156.203Z" fill="white"/>
<path d="M114.277 117.06C114.544 116.675 114.992 116.447 115.463 116.29C115.235 115.425 115.652 114.592 116.367 114.167C117.083 113.743 118.041 113.68 118.977 113.837C119.975 112.454 122.372 112.202 124.157 113.303C124.95 112.147 126.829 111.833 128.37 112.603C129.91 113.374 130.916 115.134 130.641 116.549C131.789 116.635 132.983 117.288 133.722 118.223C134.265 118.915 134.5 119.96 133.824 120.314C134.689 120.589 135.223 121.532 135.271 122.334C135.349 123.592 134.477 124.684 133.211 124.928C133.801 126.17 133.738 127.561 133.046 128.528C132.637 129.094 131.789 129.518 131.065 129.062C131.954 130.328 131.655 132.017 130.437 132.607C130.24 132.701 129.981 132.764 129.769 132.623C129.926 134.124 128.425 135.287 126.798 134.918C126.915 136.238 125.988 137.394 124.644 137.598C123.3 137.802 121.657 137.048 120.832 135.837C120.077 136.474 118.772 136.301 117.664 135.877C116.925 135.594 116.179 135.185 115.691 134.572C115.204 133.959 115.031 133.11 115.471 132.615C114.277 132.725 112.909 131.845 112.343 130.736C111.777 129.62 111.958 128.378 112.642 127.545C111.691 127.05 110.975 126.099 110.842 125.164C110.708 124.228 111.164 123.34 111.989 122.947C111.038 122.192 111.078 120.896 111.486 119.992C111.722 119.481 112.044 118.993 112.539 118.695C113.019 118.404 113.569 118.373 114.182 118.451C114.182 117.948 113.97 117.516 114.277 117.06Z" fill="#263238"/>
<path d="M135.813 108.791C135.813 108.791 143.264 117.06 144.192 119.953C146.605 121.202 147.234 117.398 146.078 112.753C145.135 108.956 142.195 105.294 138.556 104.571C133.447 103.557 135.805 108.791 135.805 108.791H135.813Z" fill="#263238"/>
<path d="M140.325 135.79C139.452 134.855 139.287 134.14 139.507 132.827C139.664 131.821 140.026 130.784 140.45 129.778L139.153 128.261L132.378 121.422C132.551 125.989 133.093 133.322 129.525 135.798C129.525 135.798 125.548 137.237 123.732 138.101C124.888 139.052 135.766 151.896 142.604 151.338C148.829 150.834 146.652 139.068 145.654 137.268C143.885 136.718 141.991 136.168 140.325 135.79Z" fill="#B97964"/>
<path opacity="0.2" d="M139.46 133.81C137.542 133.299 134.791 131.923 134.39 129.699C134.225 128.787 134.225 127.883 134.296 127.286L139.955 131.067C139.861 131.923 139.366 132.568 139.46 133.81Z" fill="black"/>
<path d="M126.294 117.586C128.723 124.142 129.604 126.963 134.029 129.549C140.678 133.448 148.224 129.502 147.807 122.468C147.438 116.132 143.531 106.472 136.167 105.427C128.912 104.397 123.866 111.031 126.294 117.586Z" fill="#B97964"/>
<path d="M136.041 117.846C136.19 118.482 136.685 118.938 137.133 118.868C137.589 118.797 137.825 118.223 137.676 117.586C137.526 116.95 137.031 116.494 136.583 116.565C136.127 116.635 135.892 117.209 136.041 117.846Z" fill="#263238"/>
<path d="M142.8 115.661C142.91 116.282 143.374 116.753 143.822 116.706C144.278 116.659 144.553 116.117 144.443 115.496C144.333 114.875 143.869 114.403 143.421 114.45C142.966 114.497 142.69 115.04 142.8 115.661Z" fill="#263238"/>
<path d="M133.73 116.077C133.816 116.062 133.895 116.014 133.95 115.936C134.713 114.694 135.97 114.702 135.986 114.702C136.174 114.702 136.316 114.56 136.308 114.372C136.3 114.183 136.135 114.034 135.947 114.026C135.884 114.026 134.304 114.01 133.353 115.559C133.258 115.716 133.313 115.92 133.479 116.03C133.557 116.077 133.644 116.101 133.73 116.085V116.077Z" fill="#263238"/>
<path d="M143.917 112.265C143.987 112.218 144.042 112.155 144.066 112.069C144.105 111.896 143.987 111.715 143.799 111.676C141.897 111.243 140.725 112.265 140.678 112.312C140.537 112.438 140.537 112.642 140.678 112.776C140.812 112.91 141.04 112.918 141.173 112.792C141.221 112.753 142.14 111.967 143.649 112.312C143.744 112.336 143.846 112.312 143.924 112.273L143.917 112.265Z" fill="#263238"/>
<path d="M125.736 123.607C126.9 124.771 128.425 125.289 129.69 125.266C131.592 125.234 131.741 122.122 130.649 120.503C129.666 119.049 127.639 118.451 125.996 119.269C124.385 120.07 124.4 122.271 125.736 123.6V123.607Z" fill="#B97964"/>
<path d="M140.325 115.779C140.325 115.779 142.054 118.011 143.665 119.261C143.948 119.481 143.924 119.913 143.634 120.117C142.887 120.644 141.842 120.628 141.842 120.628L140.325 115.771V115.779Z" fill="#A24E3F"/>
<path d="M136.442 116.573L137.943 115.912C137.943 115.912 137.298 117.241 136.442 116.573Z" fill="#263238"/>
<path d="M143.256 114.482L144.797 113.916C144.797 113.916 144.074 115.205 143.256 114.482Z" fill="#263238"/>
<path d="M123.614 114.301C123.001 115.842 125.721 119.276 125.721 119.276C125.721 119.276 128.747 117.555 130.059 122.413C131.301 122.334 131.592 117.453 130.334 112.894C129.493 110.355 124.691 111.574 123.614 114.293V114.301Z" fill="#263238"/>
<path d="M141.912 106.111C139.79 103.462 133.306 102.039 127.253 106.465C121.783 110.457 122.066 119.701 126.53 119.017C130.995 118.341 135.176 112.847 135.176 112.847L141.912 106.103V106.111Z" fill="#263238"/>
<path opacity="0.2" d="M128.857 123.71C127.686 123.702 127.049 123.23 126.711 122.845C126.381 122.46 126.216 121.98 126.279 121.587C126.373 120.966 126.97 120.369 127.717 120.471C127.827 120.487 127.898 120.589 127.882 120.691C127.866 120.801 127.772 120.872 127.662 120.856C127.151 120.778 126.735 121.21 126.672 121.642C126.64 121.855 126.711 122.232 127.018 122.586C127.301 122.916 127.843 123.309 128.865 123.317C128.975 123.317 129.061 123.403 129.061 123.513C129.061 123.623 128.975 123.71 128.865 123.71H128.857Z" fill="black"/>
<path d="M140.309 123.277C139.303 123.277 138.297 122.861 137.613 122.106C137.542 122.028 137.542 121.902 137.629 121.831C137.707 121.76 137.833 121.76 137.904 121.847C138.713 122.735 140.034 123.104 141.189 122.759C141.291 122.727 141.401 122.79 141.433 122.892C141.464 122.994 141.401 123.104 141.299 123.136C140.977 123.23 140.647 123.277 140.309 123.277Z" fill="#263238"/>
<path d="M123.15 112.682C123.15 112.682 122.899 118.035 124.597 121.1C124.597 121.1 123.158 120.408 122.121 116.557C121.335 113.625 122.262 112.926 122.262 112.926L123.15 112.682Z" fill="black"/>
<path d="M126.719 125.643C126.365 127.506 127.969 129.109 129.831 128.756C130.869 128.559 131.71 127.71 131.906 126.681C132.26 124.818 130.657 123.222 128.794 123.568C127.756 123.764 126.915 124.613 126.719 125.643Z" fill="#FC941C"/>
<path d="M125.383 169.722C125.383 169.722 130.547 171.042 131.238 172.339C131.93 173.636 129.832 173.644 129.832 173.644C129.832 173.644 132.142 173.778 132.213 174.768C132.307 175.955 130.107 175.955 130.107 175.955C130.107 175.955 131.985 176.144 131.993 177.024C132.001 177.944 129.525 178.116 129.525 178.116C129.525 178.116 130.822 178.502 130.484 179.115C130.146 179.736 124.888 180.207 123.284 179.295C121.681 178.392 121.602 171.64 121.547 170.131C121.484 168.378 122.506 166.924 123.276 166.523L125.241 169.683L125.391 169.722H125.383Z" fill="#EBB373"/>
<path opacity="0.2" d="M129.824 173.762C129.824 173.762 129.824 173.762 129.816 173.762L125.799 173.337C125.744 173.337 125.705 173.275 125.713 173.219C125.713 173.157 125.768 173.109 125.823 173.117L129.839 173.542C129.894 173.542 129.934 173.605 129.926 173.66C129.926 173.715 129.879 173.762 129.831 173.762H129.824Z" fill="black"/>
<path opacity="0.2" d="M129.989 176.065L126.106 175.963C126.051 175.963 126.012 175.908 126.012 175.853C126.012 175.79 126.051 175.751 126.114 175.743L129.997 175.845C130.052 175.845 130.091 175.9 130.091 175.955C130.091 176.018 130.044 176.065 129.997 176.065H129.989Z" fill="black"/>
<path opacity="0.2" d="M129.391 178.226H126.499C126.444 178.226 126.405 178.187 126.405 178.124C126.405 178.061 126.452 178.014 126.499 178.014H129.391C129.446 178.014 129.486 178.053 129.486 178.116C129.486 178.179 129.438 178.226 129.391 178.226Z" fill="black"/>
<path d="M122.011 172.276C122.011 172.276 126.216 174.273 126.593 175.499C126.97 176.725 125.17 176.387 125.17 176.387C125.17 176.387 127.128 176.882 127.025 177.747C126.908 178.777 125.021 178.415 125.021 178.415C125.021 178.415 126.601 178.887 126.46 179.649C126.318 180.435 124.157 180.176 124.157 180.176C124.157 180.176 125.21 180.718 124.809 181.19C124.416 181.661 119.826 181.19 118.607 180.152C117.381 179.107 118.167 173.235 118.639 172.001C118.788 171.608 119.189 170.956 121.468 170.689L121.877 172.229L122.003 172.292L122.011 172.276Z" fill="#B97964"/>
<path opacity="0.2" d="M125.147 176.482H125.139L121.767 175.444C121.72 175.428 121.696 175.373 121.712 175.326C121.728 175.271 121.775 175.248 121.822 175.255L125.194 176.285C125.241 176.301 125.265 176.356 125.249 176.403C125.233 176.45 125.194 176.482 125.147 176.474V176.482Z" fill="black"/>
<path opacity="0.2" d="M124.903 178.478L121.586 177.747C121.539 177.739 121.516 177.684 121.523 177.637C121.531 177.582 121.571 177.558 121.626 177.558L124.943 178.289C124.99 178.297 125.013 178.352 125.005 178.399C124.998 178.454 124.95 178.486 124.903 178.478Z" fill="black"/>
<path opacity="0.2" d="M124.031 180.231L121.555 179.759C121.508 179.751 121.476 179.696 121.492 179.649C121.5 179.594 121.547 179.563 121.594 179.571L124.07 180.042C124.117 180.05 124.149 180.105 124.133 180.152C124.125 180.207 124.078 180.239 124.031 180.231Z" fill="black"/>
<path d="M191.564 162.782C191.564 162.782 187.359 164.778 186.982 166.004C186.604 167.23 188.404 166.892 188.404 166.892C188.404 166.892 186.447 167.388 186.549 168.252C186.667 169.282 188.554 168.92 188.554 168.92C188.554 168.92 186.974 169.392 187.115 170.154C187.257 170.94 189.418 170.681 189.418 170.681C189.418 170.681 188.365 171.223 188.766 171.695C189.159 172.166 193.749 171.695 194.967 170.657C196.194 169.612 195.407 163.74 194.936 162.506C194.787 162.113 194.386 161.461 192.106 161.194L191.698 162.734L191.572 162.797L191.564 162.782Z" fill="#B97964"/>
<path opacity="0.2" d="M188.42 166.987H188.428L191.8 165.949C191.847 165.933 191.87 165.878 191.855 165.831C191.839 165.776 191.792 165.753 191.745 165.761L188.373 166.79C188.326 166.806 188.302 166.861 188.318 166.908C188.333 166.955 188.373 166.987 188.42 166.979V166.987Z" fill="black"/>
<path opacity="0.2" d="M188.664 168.991L191.98 168.26C192.028 168.252 192.051 168.197 192.043 168.15C192.035 168.095 191.996 168.072 191.941 168.072L188.624 168.803C188.577 168.81 188.554 168.865 188.561 168.913C188.569 168.968 188.616 168.999 188.664 168.991Z" fill="black"/>
<path opacity="0.2" d="M189.544 170.744L192.02 170.272C192.067 170.264 192.098 170.209 192.083 170.162C192.075 170.107 192.028 170.076 191.98 170.083L189.505 170.555C189.457 170.563 189.426 170.61 189.442 170.665C189.45 170.72 189.497 170.752 189.544 170.744Z" fill="black"/>
<path d="M119.975 151.613C119.716 151.33 105.882 161.249 105.654 161.72C104.813 163.458 119.441 173.11 119.441 173.11L118.01 177.999C118.01 177.999 109.608 175.806 102.149 170.359C94.4536 164.731 94.9488 159.3 99.4683 154.796C103.603 150.661 115.432 142.408 115.432 142.408L119.967 151.62L119.975 151.613Z" fill="#B97964"/>
<path opacity="0.3" d="M105.662 161.728C105.662 161.728 104.349 160.235 102.078 159.96C102.078 159.96 102.762 159.378 104.412 159.881C105.418 160.188 106.44 161.052 106.44 161.052L105.654 161.72L105.662 161.728Z" fill="black"/>
<path d="M121.052 139.956C117.751 139.123 109.521 145.961 109.521 145.961L114.104 156.36C114.104 156.36 123.237 152.43 124.707 148.303C125.933 144.814 125.241 141.009 121.052 139.956Z" fill="#407BFF"/>
<g opacity="0.7">
<path d="M121.052 139.956C117.751 139.123 109.521 145.961 109.521 145.961L114.104 156.36C114.104 156.36 123.237 152.43 124.707 148.303C125.933 144.814 125.241 141.009 121.052 139.956Z" fill="white"/>
</g>
<path d="M174.083 114.505C174.083 114.505 172.173 110.512 172.315 102.487C172.315 102.479 171.875 102.409 171.875 102.401C171.89 101.277 171.945 100.232 172.016 99.3198C172.016 99.2962 172.016 99.2883 172.016 99.2883L163.543 108.335C164.423 110.646 164.816 115.48 164.832 117.555C164.832 117.555 164.502 121.422 169.218 120.306C172.668 119.496 174.083 114.505 174.083 114.505Z" fill="#EBB373"/>
<path opacity="0.2" d="M164.274 111.723L169.776 108.815C169.737 110.78 168.707 113.374 164.683 114.655C164.683 114.655 164.541 112.509 164.274 111.723Z" fill="black"/>
<path d="M150.527 92.2773C149.969 94.9576 152.162 100.617 155.62 98.526C159.079 96.4353 151.486 87.6714 150.527 92.2773Z" fill="#263238"/>
<path d="M170.759 94.3207C171.82 100.962 172.551 104.68 169.98 108.752C166.113 114.875 157.554 113.719 154.528 107.51C151.8 101.921 150.527 92.0099 156.375 88.0249C162.144 84.1027 169.697 87.679 170.759 94.3207Z" fill="#EBB373"/>
<path d="M171.497 84.771C167.748 79.772 159.071 84.8338 156.956 87.239C156.642 87.6006 162.6 89.094 162.246 89.0468L164.966 89.3533C165.335 89.1804 166.2 89.4634 166.868 90.5795C166.868 90.5795 167.457 97.7242 170.947 99.9958C173.502 98.0465 173.651 96.9147 173.84 94.3837C174.123 90.6109 173.344 87.129 171.505 84.7552L171.497 84.771Z" fill="#263238"/>
<path d="M174.563 99.2017C174.413 101.002 173.447 102.566 172.291 103.501C170.554 104.908 168.778 103.564 168.503 101.458C168.251 99.5633 168.856 96.5451 170.971 95.9634C173.046 95.3818 174.736 97.1424 174.563 99.2017Z" fill="#EBB373"/>
<path d="M161.806 98.2979C161.955 98.966 161.719 99.5869 161.279 99.6812C160.839 99.7755 160.36 99.3039 160.21 98.6358C160.061 97.9677 160.297 97.3468 160.737 97.2525C161.177 97.1582 161.657 97.6298 161.806 98.2979Z" fill="#263238"/>
<path d="M155.266 99.9014C155.416 100.569 155.18 101.19 154.74 101.285C154.3 101.379 153.82 100.907 153.671 100.239C153.521 99.5713 153.757 98.9503 154.197 98.856C154.638 98.7617 155.117 99.2333 155.266 99.9014Z" fill="#263238"/>
<path d="M157.318 99.0525C157.318 99.0525 155.942 102.857 155.565 104.366C156.689 105.003 158.206 104.256 158.206 104.256L157.318 99.0604V99.0525Z" fill="#E4873E"/>
<path d="M162.741 94.7767C162.647 94.8396 162.529 94.8553 162.419 94.8003C161.122 94.1872 160.1 94.7845 160.085 94.7924C159.935 94.8867 159.731 94.8396 159.644 94.6824C159.55 94.533 159.597 94.3365 159.755 94.2422C159.81 94.2108 161.083 93.4562 162.702 94.2186C162.859 94.2972 162.93 94.4859 162.859 94.6431C162.836 94.6981 162.796 94.7374 162.757 94.7688L162.741 94.7767Z" fill="#263238"/>
<path opacity="0.2" d="M170.106 100.546C170.004 100.546 169.925 100.467 169.91 100.373C169.847 99.7599 169.941 99.139 170.185 98.5731C170.35 98.1879 170.672 97.677 171.214 97.4098C171.749 97.1425 172.401 97.2133 172.794 97.5827C172.873 97.6613 172.873 97.7792 172.794 97.8578C172.716 97.9364 172.598 97.9364 172.519 97.8578C172.252 97.6063 171.772 97.5591 171.387 97.7478C170.947 97.9678 170.688 98.4001 170.546 98.7224C170.326 99.2254 170.24 99.7756 170.295 100.326C170.303 100.436 170.232 100.53 170.122 100.546H170.098H170.106Z" fill="black"/>
<path d="M151.729 97.7165C151.667 97.7165 151.604 97.7007 151.549 97.6614C151.399 97.5671 151.352 97.3628 151.454 97.2134C152.413 95.7279 153.891 95.72 153.962 95.7122C154.142 95.7122 154.284 95.8536 154.284 96.0344C154.284 96.2152 154.142 96.3567 153.97 96.3567C153.907 96.3567 152.767 96.3724 151.997 97.5671C151.934 97.6614 151.832 97.7086 151.729 97.7086V97.7165Z" fill="#263238"/>
<path d="M166.498 84.7161C164.683 82.3581 161.57 81.3363 159.016 82.2638C157.396 82.8533 156.084 84.103 154.645 85.0934C153.207 86.0838 151.462 86.8305 149.78 86.2646C148.955 85.9895 147.98 85.4314 147.344 86.0209C146.919 86.4218 146.919 87.192 147.186 87.7658C147.454 88.3396 147.925 88.7562 148.389 89.1649C147.729 89.3142 147.068 89.4636 146.408 89.6129C147.265 91.57 149.081 92.8905 150.967 93.4329C152.853 93.9752 154.811 93.8337 156.705 93.5193C158.968 93.1499 161.224 92.529 163.142 91.2163C165.06 89.9037 166.608 87.8208 166.994 85.3213L166.491 84.724L166.498 84.7161Z" fill="#263238"/>
<path d="M163.056 81.572C161.837 80.9353 160.344 80.8331 159.047 81.289C157.852 81.7134 156.862 82.5623 155.769 83.2225C154.685 83.8749 153.341 84.3465 152.154 83.8906C151.509 83.647 150.723 83.1754 150.228 83.6548C149.851 84.0243 150.024 84.6609 150.315 85.0932C151.046 86.1622 152.429 86.736 153.702 86.5002L165.587 84.6924C165.217 83.364 164.282 82.2086 163.056 81.572Z" fill="#263238"/>
<path d="M173.651 114.333L177.746 118.019L170.916 126.303L161.036 117.98L163.967 113.68L170.138 118.836L173.651 114.333Z" fill="#407BFF"/>
<path opacity="0.8" d="M173.651 114.333L177.746 118.019L170.916 126.303L161.036 117.98L163.967 113.68L170.138 118.836L173.651 114.333Z" fill="white"/>
<path opacity="0.2" d="M192.091 161.186L190.306 131.852C190.306 131.852 193.474 143.446 193.474 149.993C193.474 156.541 192.098 161.186 192.098 161.186H192.091Z" fill="black"/>
<path d="M160.768 106.48C160.682 106.48 160.603 106.425 160.58 106.339C160.548 106.237 160.611 106.127 160.713 106.095C161.869 105.757 162.781 104.736 162.985 103.549C163.001 103.439 163.103 103.368 163.213 103.391C163.323 103.407 163.394 103.509 163.37 103.619C163.142 104.948 162.12 106.095 160.823 106.48C160.808 106.48 160.784 106.48 160.768 106.48Z" fill="#263238"/>
</svg>
